<svg width="26" height="26" viewBox="0 0 26 26" fill="none" xmlns="http://www.w3.org/2000/svg">
<path d="M18 10C15.8862 10.0256 13.8663 10.8767 12.3715 12.3715C10.8767 13.8663 10.0256 15.8862 10 18C10.0256 20.1138 10.8767 22.1337 12.3715 23.6285C13.8663 25.1233 15.8862 25.9744 18 26C20.1138 25.9744 22.1337 25.1233 23.6285 23.6285C25.1233 22.1337 25.9744 20.1138 26 18C25.9744 15.8862 25.1233 13.8663 23.6285 12.3715C22.1337 10.8767 20.1138 10.0256 18 10ZM22.5714 18.5714H18.5714V22.5714H17.4286V18.5714H13.4286V17.4286H17.4286V13.4286H18.5714V17.4286H22.5714V18.5714Z" fill="white"/>
<path d="M18.5134 7.21875C19.0454 7.44792 19.5242 7.72917 19.9498 8.0625C20.3754 8.39583 20.7437 8.77083 21.0547 9.1875C21.3657 9.60417 21.599 10.0486 21.7545 10.5208C21.91 10.9931 21.9918 11.4861 22 12H20.4286C20.4286 11.4514 20.3058 10.934 20.0603 10.4479C19.8147 9.96181 19.4751 9.53819 19.0413 9.17708C18.6075 8.81597 18.1083 8.53125 17.5435 8.32292C16.9788 8.11458 16.369 8.00694 15.7143 8C15.0677 8 14.458 8.10417 13.885 8.3125C13.3121 8.52083 12.8129 8.80903 12.3873 9.17708C11.9617 9.54514 11.6261 9.96875 11.3806 10.4479C11.135 10.9271 11.0082 11.4444 11 12C11 12.6319 10.8322 13.2326 10.4967 13.8021C10.1611 14.3715 9.69048 14.8438 9.08482 15.2188C9.61682 15.4479 10.0956 15.7292 10.5212 16.0625C10.9468 16.3958 11.3151 16.7708 11.6261 17.1875C11.9371 17.6042 12.1704 18.0486 12.3259 18.5208C12.4814 18.9931 12.5632 19.4861 12.5714 20H11C11 19.4514 10.8772 18.934 10.6317 18.4479C10.3862 17.9618 10.0465 17.5382 9.61272 17.1771C9.17894 16.816 8.67969 16.5312 8.11495 16.3229C7.55022 16.1146 6.94048 16.0069 6.28571 16C5.63914 16 5.02939 16.1042 4.45647 16.3125C3.88356 16.5208 3.3843 16.809 2.95871 17.1771C2.53311 17.5451 2.19754 17.9688 1.95201 18.4479C1.70647 18.9271 1.57961 19.4444 1.57143 20H0C0 19.4931 0.0818452 19.0035 0.245536 18.5312C0.409226 18.059 0.642485 17.6146 0.945312 17.1979C1.24814 16.7812 1.61235 16.4062 2.03795 16.0729C2.46354 15.7396 2.94643 15.4549 3.48661 15.2188C2.88914 14.8438 2.42262 14.3715 2.08705 13.8021C1.75149 13.2326 1.57961 12.6319 1.57143 12C1.57143 11.4514 1.6942 10.934 1.93973 10.4479C2.18527 9.96181 2.52493 9.53819 2.95871 9.17708C3.39249 8.81597 3.89174 8.53125 4.45647 8.32292C5.02121 8.11458 5.63095 8.00694 6.28571 8C7.03051 8 7.73847 8.14236 8.4096 8.42708C9.08073 8.71181 9.63728 9.11111 10.0792 9.625C10.3903 9.10417 10.7872 8.63889 11.2701 8.22917C11.753 7.81944 12.3013 7.48264 12.9152 7.21875C12.3177 6.84375 11.8512 6.37153 11.5156 5.80208C11.1801 5.23264 11.0082 4.63194 11 4C11 3.45139 11.1228 2.93403 11.3683 2.44792C11.6138 1.96181 11.9535 1.53819 12.3873 1.17708C12.8211 0.815972 13.3203 0.53125 13.885 0.322917C14.4498 0.114583 15.0595 0.00694444 15.7143 0C16.3609 0 16.9706 0.104167 17.5435 0.3125C18.1164 0.520833 18.6157 0.809028 19.0413 1.17708C19.4669 1.54514 19.8025 1.96875 20.048 2.44792C20.2935 2.92708 20.4204 3.44444 20.4286 4C20.4286 4.63194 20.2608 5.23264 19.9252 5.80208C19.5897 6.37153 19.119 6.84375 18.5134 7.21875ZM6.28571 14.6667C6.71131 14.6667 7.11644 14.5972 7.50112 14.4583C7.88579 14.3194 8.21726 14.1285 8.49554 13.8854C8.77381 13.6424 8.99888 13.3611 9.17076 13.0417C9.34263 12.7222 9.42857 12.375 9.42857 12C9.42857 11.6389 9.34673 11.2951 9.18304 10.9688C9.01935 10.6424 8.79427 10.3611 8.50781 10.125C8.22135 9.88889 7.88579 9.69792 7.50112 9.55208C7.11644 9.40625 6.71131 9.33333 6.28571 9.33333C5.85193 9.33333 5.4468 9.40278 5.07031 9.54167C4.69382 9.68056 4.36235 9.87153 4.07589 10.1146C3.78943 10.3576 3.56436 10.6424 3.40067 10.9688C3.23698 11.2951 3.15104 11.6389 3.14286 12C3.14286 12.3681 3.2247 12.7118 3.38839 13.0312C3.55208 13.3507 3.77716 13.6319 4.06362 13.875C4.35007 14.1181 4.68155 14.309 5.05804 14.4479C5.43452 14.5868 5.84375 14.6597 6.28571 14.6667ZM12.5714 4C12.5714 4.36806 12.6533 4.71181 12.817 5.03125C12.9807 5.35069 13.2057 5.63194 13.4922 5.875C13.7786 6.11806 14.1101 6.30903 14.4866 6.44792C14.8631 6.58681 15.2723 6.65972 15.7143 6.66667C16.1399 6.66667 16.545 6.59722 16.9297 6.45833C17.3144 6.31944 17.6458 6.12847 17.9241 5.88542C18.2024 5.64236 18.4275 5.36111 18.5993 5.04167C18.7712 4.72222 18.8571 4.375 18.8571 4C18.8571 3.63889 18.7753 3.29514 18.6116 2.96875C18.4479 2.64236 18.2228 2.36111 17.9364 2.125C17.6499 1.88889 17.3144 1.69792 16.9297 1.55208C16.545 1.40625 16.1399 1.33333 15.7143 1.33333C15.2805 1.33333 14.8754 1.40278 14.4989 1.54167C14.1224 1.68056 13.7909 1.87153 13.5045 2.11458C13.218 2.35764 12.9929 2.64236 12.8292 2.96875C12.6656 3.29514 12.5796 3.63889 12.5714 4Z" fill="white"/>
</svg>
