<svg width="22" height="22" viewBox="0 0 22 22" fill="none" xmlns="http://www.w3.org/2000/svg">
<path d="M18.875 0.52712C18.2048 0.52712 17.5485 0.786995 17.0427 1.29275L8.375 9.93337L8.18338 10.125L8.12912 10.3989L7.52713 13.4614L7.25412 14.7459L8.5395 14.4729L11.602 13.8709L11.875 13.8166L12.0666 13.625L20.7073 4.95724C21.0694 4.59417 21.3159 4.13201 21.4158 3.62903C21.5157 3.12604 21.4644 2.60474 21.2685 2.13086C21.0725 1.65697 20.7406 1.2517 20.3147 0.96614C19.8888 0.680582 19.3878 0.528394 18.875 0.52712ZM18.875 2.22287C19.0798 2.22287 19.2819 2.32787 19.477 2.52299C19.8664 2.91324 19.8664 3.33674 19.477 3.72612L11 12.204L9.49588 12.505L9.79688 11.0009L18.2739 2.52387C18.4681 2.32962 18.6702 2.22287 18.875 2.22287ZM0.5 3.99999V21.5H18V9.96049L16.25 11.7105V19.75H2.25V5.74999H10.2895L12.0395 3.99999H0.5Z" fill="#0250E6"/>
</svg>
