<svg width="46" height="46" viewBox="0 0 46 46" fill="none" xmlns="http://www.w3.org/2000/svg">
<rect x="1.23105" y="1.1893" width="43.6536" height="43.6536" rx="21.8268" stroke="#BC9543" stroke-width="1.11932"/>
<path d="M15.7517 18.9745L19.3274 20.0067L23.2574 17.1525L17.6173 17.3141C17.5621 17.3172 17.5085 17.3343 17.4618 17.3639L15.6771 18.3899C15.6216 18.4207 15.5766 18.4674 15.5479 18.524C15.5192 18.5806 15.5082 18.6446 15.5162 18.7075C15.5243 18.7705 15.551 18.8296 15.593 18.8772C15.635 18.9247 15.6903 18.9587 15.7517 18.9745Z" fill="#BC9543"/>
<path d="M33.3309 15.7781L29.4133 14.9324C29.0838 14.8609 28.7428 14.8611 28.4134 14.933C28.084 15.0048 27.7739 15.1468 27.5042 15.3491L15.6705 23.9492L12.8286 23.8248C12.6658 23.8193 12.5054 23.865 12.3701 23.9556C12.2347 24.0461 12.1312 24.1769 12.0741 24.3295C12.0171 24.482 12.0094 24.6486 12.0522 24.8058C12.095 24.963 12.186 25.1027 12.3125 25.2053L15.0797 27.4004C15.1253 27.4372 15.1795 27.4616 15.2372 27.4714C15.2949 27.4812 15.3542 27.476 15.4093 27.4564C16.199 27.1517 19.1404 25.5909 22.6165 23.6818L23.313 30.8392C23.3189 30.9012 23.3416 30.9604 23.3787 31.0105C23.4157 31.0605 23.4658 31.0994 23.5234 31.1231C23.581 31.1468 23.6439 31.1543 23.7055 31.1448C23.767 31.1353 23.8248 31.1092 23.8726 31.0693L25.4272 29.7759C25.5123 29.7045 25.5696 29.6054 25.5889 29.4961L27.0627 21.2317C29.5501 19.8512 31.9255 18.5142 33.5983 17.569C33.7719 17.4746 33.9122 17.329 34.0004 17.1521C34.0885 16.9752 34.1201 16.7755 34.0909 16.5801C34.0617 16.3846 33.9731 16.2028 33.8372 16.0594C33.7013 15.9159 33.5245 15.8178 33.3309 15.7781Z" fill="#BC9543"/>
</svg>
