<svg width="25" height="22" viewBox="0 0 25 22" fill="none" xmlns="http://www.w3.org/2000/svg">
<path d="M20.0522 2.521H4.94808C3.79749 2.521 2.86475 3.34181 2.86475 4.35433V17.646C2.86475 18.6585 3.79749 19.4793 4.94808 19.4793H20.0522C21.2028 19.4793 22.1356 18.6585 22.1356 17.646V4.35433C22.1356 3.34181 21.2028 2.521 20.0522 2.521Z" stroke="#0250E6" stroke-linecap="round" stroke-linejoin="round"/>
<path d="M12.4998 16.2706C15.2774 15.4282 17.2571 13.4693 17.5675 10.9759C17.6535 9.89335 17.6463 8.8066 17.5462 7.72497C17.5328 7.55452 17.4478 7.39457 17.3077 7.27629C17.1676 7.158 16.9824 7.08986 16.7884 7.08514C15.5316 7.05122 14.0712 6.86697 12.9425 5.88889C12.8246 5.78644 12.6655 5.729 12.4998 5.729C12.3341 5.729 12.1751 5.78644 12.0571 5.88889C10.929 6.86697 9.46858 7.05122 8.21181 7.08514C8.01773 7.08986 7.83261 7.158 7.69251 7.27629C7.55241 7.39457 7.46738 7.55452 7.454 7.72497C7.35349 8.80658 7.346 9.89333 7.4316 10.9759C7.74254 13.4693 9.72223 15.4282 12.4998 16.2706Z" stroke="#0250E6" stroke-linecap="round" stroke-linejoin="round"/>
<path d="M10.6458 10.4463H14.3541C14.4216 10.4464 14.4863 10.47 14.5341 10.512C14.5818 10.554 14.6087 10.611 14.6088 10.6704V13.0821C14.6087 13.1416 14.5817 13.1986 14.5339 13.2406C14.486 13.2827 14.4212 13.3063 14.3536 13.3063H10.6458C10.5782 13.3061 10.5134 13.2824 10.4657 13.2403C10.4179 13.1982 10.3911 13.1412 10.3911 13.0817V10.6704C10.3911 10.5466 10.5052 10.4463 10.6458 10.4463Z" stroke="#0250E6" stroke-linecap="round" stroke-linejoin="round"/>
<path d="M11.104 10.4464V9.93173C11.1111 9.61036 11.2611 9.30426 11.5218 9.07918C11.7826 8.85411 12.1333 8.72803 12.4985 8.72803C12.8638 8.72803 13.2145 8.85411 13.4752 9.07918C13.736 9.30426 13.886 9.61036 13.8931 9.93173V10.4464" stroke="#0250E6" stroke-linecap="round" stroke-linejoin="round"/>
</svg>
