<svg width="16" height="13" viewBox="0 0 16 13" fill="none" xmlns="http://www.w3.org/2000/svg">
<path d="M14 2.4375H2C1.73478 2.4375 1.48043 2.5231 1.29289 2.67548C1.10536 2.82785 1 3.03451 1 3.25V9.75C1 9.96549 1.10536 10.1722 1.29289 10.3245C1.48043 10.4769 1.73478 10.5625 2 10.5625H14C14.2652 10.5625 14.5196 10.4769 14.7071 10.3245C14.8946 10.1722 15 9.96549 15 9.75V3.25C15 3.03451 14.8946 2.82785 14.7071 2.67548C14.5196 2.5231 14.2652 2.4375 14 2.4375ZM12.9 3.25L8 6.00437L3.1 3.25H12.9ZM2 9.75V3.61969L7.715 6.83313C7.7987 6.8803 7.89813 6.90558 8 6.90558C8.10187 6.90558 8.2013 6.8803 8.285 6.83313L14 3.61969V9.75H2Z" fill="white"/>
</svg>
