<svg width="24" height="20" viewBox="0 0 24 20" fill="none" xmlns="http://www.w3.org/2000/svg">
<g clip-path="url(#clip0_1_498)">
<path d="M10.1807 8.22791C9.34134 8.22791 8.5208 8.00751 7.82294 7.5946C7.12509 7.18168 6.58129 6.59482 6.26035 5.90826C5.93941 5.2217 5.85576 4.46629 6.01997 3.73764C6.18419 3.00898 6.5889 2.33981 7.18289 1.81481C7.77688 1.28981 8.53345 0.932565 9.35688 0.788284C10.1803 0.644003 11.0336 0.719169 11.8087 1.00427C12.5839 1.28937 13.2461 1.7716 13.7115 2.38992C14.177 3.00825 14.4248 3.7349 14.4235 4.47791C14.4202 5.47253 13.9719 6.42549 13.1768 7.12828C12.3817 7.83106 11.3044 8.22645 10.1807 8.22791ZM10.1807 1.83347C9.58988 1.83347 9.01227 1.98856 8.52098 2.27913C8.02968 2.56971 7.64677 2.98272 7.42065 3.46592C7.19453 3.94913 7.13537 4.48084 7.25065 4.99382C7.36592 5.50679 7.65045 5.97798 8.06826 6.34781C8.48607 6.71765 9.0184 6.96951 9.59791 7.07154C10.1774 7.17358 10.7781 7.12121 11.324 6.92106C11.8699 6.72091 12.3365 6.38196 12.6648 5.94708C12.993 5.51221 13.1683 5.00093 13.1683 4.47791C13.1683 3.77656 12.8535 3.10393 12.2932 2.60801C11.733 2.11208 10.9731 1.83347 10.1807 1.83347Z" fill="white"/>
<path d="M11.273 17.6002C11.1359 17.4787 11.0301 17.3324 10.9629 17.1713C10.8957 17.0102 10.8688 16.8381 10.8839 16.6669H3.47791V13.4558C4.36783 12.6152 5.44722 11.9495 6.64623 11.5016C7.84524 11.0537 9.13714 10.8337 10.4383 10.8558H10.8902C10.8614 10.6695 10.8815 10.4799 10.949 10.3016C11.0165 10.1233 11.1295 9.96126 11.2793 9.82798L11.3546 9.76687C11.0597 9.76687 10.727 9.73353 10.4383 9.73353C8.90714 9.70136 7.38704 9.97076 5.9879 10.5223C4.58877 11.0738 3.34556 11.8936 2.34818 12.9224C2.2667 13.0186 2.22266 13.1356 2.22266 13.2558V16.6669C2.22266 16.9616 2.35491 17.2442 2.59031 17.4525C2.82572 17.6609 3.145 17.778 3.47791 17.778H11.4488L11.273 17.6002Z" fill="white"/>
<path d="M17.8315 9.05017C17.8624 9.04448 17.8942 9.04448 17.925 9.05017C17.8941 9.04517 17.8625 9.04517 17.8315 9.05017Z" fill="white"/>
<path d="M22.1058 12.9556L20.8506 12.6168C20.7609 12.345 20.6388 12.0824 20.4866 11.8334L21.1142 10.8001C21.1346 10.7588 21.1395 10.7127 21.1282 10.6687C21.1169 10.6247 21.09 10.5851 21.0514 10.5556L20.1414 9.75009C20.107 9.71711 20.061 9.69535 20.0109 9.68829C19.9608 9.68124 19.9095 9.68931 19.8652 9.7112L18.7104 10.2668C18.426 10.1253 18.1251 10.0116 17.8129 9.92787L17.43 8.81676C17.4138 8.77586 17.383 8.74074 17.3422 8.7167C17.3014 8.69265 17.253 8.68097 17.2041 8.68343H15.9174C15.868 8.68292 15.8198 8.69677 15.7801 8.72286C15.7404 8.74895 15.7115 8.78584 15.6978 8.82787L15.3149 9.93898C15.0006 10.0199 14.6974 10.1317 14.4111 10.2723L13.2688 9.71676C13.2255 9.69529 13.1753 9.68744 13.1262 9.6945C13.0772 9.70157 13.0324 9.72312 12.999 9.75565L12.0701 10.5556C12.0356 10.5878 12.0135 10.6286 12.0067 10.6725C12 10.7164 12.0089 10.761 12.0324 10.8001L12.66 11.8112C12.494 12.0616 12.3614 12.3282 12.2646 12.6056L11.0094 12.939C10.9619 12.9511 10.9202 12.9767 10.8908 13.0119C10.8613 13.047 10.8456 13.0897 10.8462 13.1334V14.2723C10.8499 14.3124 10.8676 14.3506 10.8968 14.3814C10.9261 14.4123 10.9654 14.4343 11.0094 14.4445L12.2646 14.7834C12.3574 15.0559 12.4837 15.3186 12.6412 15.5668L12.0136 16.6279C11.9896 16.6659 11.9804 16.7098 11.9872 16.7529C11.994 16.796 12.0165 16.836 12.0513 16.8668L12.9613 17.6723C12.9969 17.7037 13.0427 17.7244 13.0923 17.7313C13.1419 17.7383 13.1927 17.7313 13.2375 17.7112L14.4111 17.1556C14.6904 17.2886 14.985 17.3948 15.2898 17.4723L15.6664 18.5834C15.6818 18.6245 15.7112 18.6605 15.7505 18.6863C15.7898 18.7122 15.8371 18.7267 15.8861 18.7279H17.1727C17.2219 18.7275 17.2696 18.7133 17.3091 18.6873C17.3486 18.6614 17.3777 18.625 17.3924 18.5834L17.7752 17.4445C18.076 17.3669 18.3664 17.2608 18.6413 17.1279L19.8276 17.6834C19.8712 17.7039 19.9212 17.7112 19.9699 17.7042C20.0186 17.6972 20.0634 17.6762 20.0974 17.6445L21.0514 16.889C21.0771 16.8564 21.0908 16.8176 21.0908 16.7779C21.0908 16.7381 21.0771 16.6994 21.0514 16.6668L20.4238 15.6223C20.5762 15.3772 20.6982 15.1183 20.7878 14.8501L22.0431 14.5112C22.0906 14.4991 22.1322 14.4735 22.1617 14.4383C22.1912 14.4032 22.2068 14.3605 22.2063 14.3168V13.1501C22.212 13.1126 22.2056 13.0744 22.1879 13.04C22.1701 13.0056 22.1417 12.9763 22.1058 12.9556ZM16.5639 15.5556C16.1488 15.5567 15.7426 15.4487 15.3969 15.2452C15.0512 15.0418 14.7816 14.752 14.6221 14.4128C14.4627 14.0735 14.4206 13.6999 14.5013 13.3395C14.582 12.979 14.7818 12.6479 15.0753 12.388C15.3689 12.1282 15.743 11.9513 16.1502 11.8799C16.5574 11.8085 16.9794 11.8457 17.3627 11.9869C17.746 12.128 18.0734 12.3667 18.3032 12.6727C18.5331 12.9787 18.6551 13.3382 18.6539 13.7056C18.6522 14.1958 18.4315 14.6656 18.0399 15.0122C17.6483 15.3588 17.1177 15.5542 16.5639 15.5556Z" fill="white"/>
</g>
<defs>
<clipPath id="clip0_1_498">
<rect width="22.5946" height="20" fill="white" transform="translate(0.967285)"/>
</clipPath>
</defs>
</svg>
