<svg width="12" height="11" viewBox="0 0 12 11" fill="none" xmlns="http://www.w3.org/2000/svg">
<path d="M11.2425 4.26348C11.0405 4.07 10.8316 3.87063 10.7529 3.69531C10.68 3.53473 10.6757 3.26857 10.6714 3.01076C10.6634 2.53147 10.6548 1.98835 10.2429 1.61071C9.83089 1.23308 9.23839 1.22522 8.71554 1.21786C8.43429 1.21393 8.14393 1.21 7.96875 1.14321C7.77804 1.07103 7.56 0.879509 7.34893 0.694375C6.97929 0.368795 6.55929 0 6 0C5.44071 0 5.02125 0.368795 4.65107 0.694375C4.44 0.879509 4.2225 1.07103 4.03125 1.14321C3.85714 1.21 3.56571 1.21393 3.28446 1.21786C2.76161 1.22522 2.16911 1.23308 1.75714 1.61071C1.34518 1.98835 1.33929 2.53147 1.32857 3.01076C1.32429 3.26857 1.32 3.53473 1.24714 3.69531C1.16839 3.87013 0.959464 4.07 0.7575 4.26348C0.402321 4.60232 0 4.98732 0 5.5C0 6.01268 0.402321 6.39719 0.7575 6.73652C0.959464 6.93 1.16839 7.12937 1.24714 7.30469C1.32 7.46527 1.32429 7.73143 1.32857 7.98924C1.33661 8.46853 1.34518 9.01165 1.75714 9.38929C2.16911 9.76692 2.76161 9.77478 3.28446 9.78214C3.56571 9.78607 3.85607 9.79 4.03125 9.85679C4.22196 9.92897 4.44 10.1205 4.65107 10.3056C5.02071 10.6312 5.44071 11 6 11C6.55929 11 6.97875 10.6312 7.34893 10.3056C7.56 10.1205 7.7775 9.92897 7.96875 9.85679C8.14393 9.79 8.43429 9.78607 8.71554 9.78214C9.23839 9.77478 9.83089 9.76692 10.2429 9.38929C10.6548 9.01165 10.6634 8.46853 10.6714 7.98924C10.6757 7.73143 10.68 7.46527 10.7529 7.30469C10.8316 7.12987 11.0405 6.93 11.2425 6.73652C11.5977 6.39768 12 6.01268 12 5.5C12 4.98732 11.5977 4.60281 11.2425 4.26348ZM10.6237 6.1929C10.3671 6.43844 10.1014 6.69232 9.96054 7.00415C9.82554 7.30371 9.81964 7.64598 9.81429 7.97746C9.80893 8.32121 9.80304 8.68116 9.63643 8.83339C9.46982 8.98563 9.07982 8.99152 8.70268 8.99643C8.34107 9.00134 7.96768 9.00674 7.64089 9.13049C7.30071 9.25964 7.02375 9.50321 6.75589 9.73844C6.48804 9.97366 6.21429 10.2143 6 10.2143C5.78571 10.2143 5.50982 9.97268 5.24411 9.73844C4.97839 9.5042 4.69929 9.25964 4.35911 9.13049C4.03232 9.00674 3.65893 9.00134 3.29732 8.99643C2.92232 8.99152 2.52964 8.98612 2.36357 8.83339C2.1975 8.68067 2.19107 8.32317 2.18571 7.97746C2.18036 7.64598 2.17446 7.30371 2.03946 7.00415C1.89857 6.69232 1.63286 6.43844 1.37625 6.1929C1.11964 5.94737 0.857143 5.69643 0.857143 5.5C0.857143 5.30357 1.12071 5.05067 1.37625 4.8071C1.63179 4.56353 1.89857 4.30768 2.03946 3.99585C2.17446 3.69629 2.18036 3.35402 2.18571 3.02254C2.19107 2.67879 2.19696 2.31884 2.36357 2.16661C2.53018 2.01437 2.92018 2.00848 3.29732 2.00357C3.65893 1.99866 4.03232 1.99326 4.35911 1.86951C4.69929 1.74036 4.97625 1.49679 5.24411 1.26156C5.51196 1.02634 5.78571 0.785714 6 0.785714C6.21429 0.785714 6.49018 1.02732 6.75589 1.26156C7.02161 1.4958 7.30071 1.74036 7.64089 1.86951C7.96768 1.99326 8.34107 1.99866 8.70268 2.00357C9.07768 2.00848 9.47036 2.01388 9.63643 2.16661C9.8025 2.31933 9.80893 2.67683 9.81429 3.02254C9.81964 3.35402 9.82554 3.69629 9.96054 3.99585C10.1014 4.30768 10.3671 4.56156 10.6237 4.8071C10.8804 5.05263 11.1429 5.30357 11.1429 5.5C11.1429 5.69643 10.8793 5.94933 10.6237 6.1929ZM8.44607 4.04348C8.48592 4.07997 8.51753 4.1233 8.5391 4.17099C8.56067 4.21868 8.57177 4.2698 8.57177 4.32143C8.57177 4.37306 8.56067 4.42418 8.5391 4.47187C8.51753 4.51956 8.48592 4.56289 8.44607 4.59938L5.44607 7.34938C5.40627 7.3859 5.359 7.41488 5.30697 7.43465C5.25495 7.45442 5.19918 7.46459 5.14286 7.46459C5.08654 7.46459 5.03077 7.45442 4.97874 7.43465C4.92671 7.41488 4.87945 7.3859 4.83964 7.34938L3.55393 6.1708C3.47351 6.09709 3.42833 5.99711 3.42833 5.89286C3.42833 5.78861 3.47351 5.68863 3.55393 5.61491C3.63435 5.54119 3.74342 5.49978 3.85714 5.49978C3.97087 5.49978 4.07994 5.54119 4.16036 5.61491L5.14286 6.51603L7.83964 4.04348C7.87945 4.00696 7.92671 3.97798 7.97874 3.95821C8.03077 3.93844 8.08654 3.92826 8.14286 3.92826C8.19918 3.92826 8.25495 3.93844 8.30697 3.95821C8.359 3.97798 8.40627 4.00696 8.44607 4.04348Z" fill="#0250E6"/>
</svg>
