<svg width="19" height="23" viewBox="0 0 19 23" fill="none" xmlns="http://www.w3.org/2000/svg">
<path d="M7.6 0C7.1041 0 6.593 0.177292 6.2339 0.539542C5.87575 0.900833 5.7 1.41642 5.7 1.91667V2.875H0V4.79167H0.95V20.125C0.95 21.7015 2.23725 23 3.8 23H15.2C16.7628 23 18.05 21.7015 18.05 20.125V4.79167H19V2.875H13.3V1.91667C13.3 1.41642 13.1243 0.900833 12.7652 0.538583C12.407 0.17825 11.8968 0 11.4 0H7.6ZM7.6 1.91667H11.4V2.875H7.6V1.91667ZM2.85 4.79167H16.15V20.125C16.15 20.6569 15.7273 21.0833 15.2 21.0833H3.8C3.27275 21.0833 2.85 20.6569 2.85 20.125V4.79167ZM4.75 7.66667V18.2083H6.65V7.66667H4.75ZM8.55 7.66667V18.2083H10.45V7.66667H8.55ZM12.35 7.66667V18.2083H14.25V7.66667H12.35Z" fill="#E60202"/>
</svg>
