<svg width="22" height="22" viewBox="0 0 22 22" fill="none" xmlns="http://www.w3.org/2000/svg">
<path d="M19.3107 10.2008C19.3105 8.33049 18.7476 6.50356 17.6952 4.95814C16.6427 3.41272 15.1497 2.22048 13.4106 1.5368C11.6715 0.853117 9.76698 0.709698 7.94527 1.12523C6.12356 1.54077 4.46914 2.49599 3.1976 3.86641C1.92607 5.23682 1.09639 6.95888 0.816704 8.80816C0.537015 10.6574 0.820282 12.5482 1.62959 14.234C2.4389 15.9197 3.73671 17.3224 5.3539 18.2591C6.97109 19.1958 8.83265 19.6232 10.696 19.4855C10.5114 19.1197 10.3623 18.7371 10.2508 18.3428L10.0113 18.3463C8.39178 18.3463 6.80908 17.8625 5.46581 16.9568C4.12253 16.0512 3.07979 14.7648 2.47105 13.2625C1.86231 11.7601 1.71527 10.1101 2.04874 8.52364C2.38222 6.93716 3.18103 5.48637 4.34295 4.35699C5.50487 3.2276 6.97703 2.471 8.57099 2.18402C10.165 1.89704 11.8082 2.09274 13.2904 2.74607C14.7726 3.39939 16.0264 4.48063 16.8912 5.85138C17.756 7.22213 18.1925 8.82003 18.1448 10.4406C18.5431 10.5538 18.9236 10.7024 19.2863 10.8862C19.3028 10.6581 19.311 10.4295 19.3107 10.2008ZM10.0369 16.019C10.0733 15.6172 10.1454 15.2274 10.2531 14.8496C9.51955 14.889 8.78714 14.7534 8.11619 14.454C7.44523 14.1546 6.85492 13.6999 6.39385 13.1274C6.34658 13.0658 6.28749 13.0144 6.22005 12.9761C6.15261 12.9377 6.07818 12.9133 6.00116 12.9042C5.92414 12.8951 5.84609 12.9015 5.77158 12.9231C5.69708 12.9447 5.62765 12.9809 5.56737 13.0298C5.50709 13.0786 5.45719 13.1391 5.4206 13.2075C5.38402 13.276 5.36148 13.3511 5.35433 13.4284C5.34718 13.5057 5.35556 13.5836 5.37897 13.6576C5.40238 13.7316 5.44035 13.8002 5.49065 13.8593C6.03563 14.5339 6.72444 15.078 7.50663 15.4517C8.28883 15.8254 9.14461 16.0192 10.0113 16.019H10.0369ZM14.0798 8.45539C14.0798 8.14677 13.9573 7.8508 13.7393 7.63257C13.5213 7.41435 13.2257 7.29175 12.9174 7.29175C12.6091 7.29175 12.3134 7.41435 12.0954 7.63257C11.8774 7.8508 11.755 8.14677 11.755 8.45539C11.755 8.76401 11.8774 9.05998 12.0954 9.2782C12.3134 9.49643 12.6091 9.61903 12.9174 9.61903C13.2257 9.61903 13.5213 9.49643 13.7393 9.2782C13.9573 9.05998 14.0798 8.76401 14.0798 8.45539ZM8.26768 8.45539C8.26768 8.14677 8.14521 7.8508 7.92721 7.63257C7.70922 7.41435 7.41355 7.29175 7.10525 7.29175C6.79696 7.29175 6.50129 7.41435 6.2833 7.63257C6.0653 7.8508 5.94283 8.14677 5.94283 8.45539C5.94283 8.76401 6.0653 9.05998 6.2833 9.2782C6.50129 9.49643 6.79696 9.61903 7.10525 9.61903C7.41355 9.61903 7.70922 9.49643 7.92721 9.2782C8.14521 9.05998 8.26768 8.76401 8.26768 8.45539ZM21.6356 16.6008C21.6356 17.9896 21.0844 19.3215 20.1035 20.3035C19.1225 21.2855 17.792 21.8372 16.4046 21.8372C15.0173 21.8372 13.6868 21.2855 12.7058 20.3035C11.7249 19.3215 11.1737 17.9896 11.1737 16.6008C11.1737 15.2121 11.7249 13.8802 12.7058 12.8982C13.6868 11.9162 15.0173 11.3645 16.4046 11.3645C17.792 11.3645 19.1225 11.9162 20.1035 12.8982C21.0844 13.8802 21.6356 15.2121 21.6356 16.6008ZM16.9859 14.2736C16.9859 14.1193 16.9246 13.9713 16.8156 13.8622C16.7066 13.7531 16.5588 13.6918 16.4046 13.6918C16.2505 13.6918 16.1027 13.7531 15.9937 13.8622C15.8847 13.9713 15.8234 14.1193 15.8234 14.2736V16.019H14.0798C13.9257 16.019 13.7778 16.0803 13.6688 16.1894C13.5598 16.2985 13.4986 16.4465 13.4986 16.6008C13.4986 16.7552 13.5598 16.9031 13.6688 17.0123C13.7778 17.1214 13.9257 17.1827 14.0798 17.1827H15.8234V18.9281C15.8234 19.0824 15.8847 19.2304 15.9937 19.3395C16.1027 19.4486 16.2505 19.5099 16.4046 19.5099C16.5588 19.5099 16.7066 19.4486 16.8156 19.3395C16.9246 19.2304 16.9859 19.0824 16.9859 18.9281V17.1827H18.7295C18.8836 17.1827 19.0315 17.1214 19.1405 17.0123C19.2495 16.9031 19.3107 16.7552 19.3107 16.6008C19.3107 16.4465 19.2495 16.2985 19.1405 16.1894C19.0315 16.0803 18.8836 16.019 18.7295 16.019H16.9859V14.2736Z" fill="#818181"/>
</svg>
