<svg width="20" height="23" viewBox="0 0 20 23" fill="none" xmlns="http://www.w3.org/2000/svg">
<path d="M2.91667 9.87606C2.80616 9.87606 2.70018 9.91673 2.62204 9.98912C2.5439 10.0615 2.5 10.1597 2.5 10.2621V20.298C2.5 20.5111 2.68667 20.684 2.91667 20.684H17.0833C17.1938 20.684 17.2998 20.6433 17.378 20.571C17.4561 20.4986 17.5 20.4004 17.5 20.298V10.2621C17.5 10.1597 17.4561 10.0615 17.378 9.98912C17.2998 9.91673 17.1938 9.87606 17.0833 9.87606H15.4167C15.0851 9.87606 14.7672 9.75406 14.5328 9.5369C14.2984 9.31973 14.1667 9.02519 14.1667 8.71807C14.1667 8.41095 14.2984 8.11641 14.5328 7.89924C14.7672 7.68208 15.0851 7.56008 15.4167 7.56008H17.0833C18.6933 7.56008 20 8.77057 20 10.2621V20.298C20 21.0146 19.6927 21.7019 19.1457 22.2086C18.5987 22.7153 17.8569 23 17.0833 23H2.91667C2.14312 23 1.40125 22.7153 0.854272 22.2086C0.307291 21.7019 0 21.0146 0 20.298V10.2621C0 8.77057 1.30667 7.56008 2.91667 7.56008H4.58333C4.91485 7.56008 5.2328 7.68208 5.46722 7.89924C5.70164 8.11641 5.83333 8.41095 5.83333 8.71807C5.83333 9.02519 5.70164 9.31973 5.46722 9.5369C5.2328 9.75406 4.91485 9.87606 4.58333 9.87606H2.91667ZM9.705 0.113401C9.7437 0.0774548 9.78968 0.0489351 9.84031 0.0294758C9.89093 0.0100165 9.94519 0 10 0C10.0548 0 10.1091 0.0100165 10.1597 0.0294758C10.2103 0.0489351 10.2563 0.0774548 10.295 0.113401L15.1217 4.5848C15.1801 4.63879 15.2199 4.70763 15.236 4.7826C15.2522 4.85756 15.2439 4.93528 15.2123 5.0059C15.1807 5.07652 15.1272 5.13685 15.0585 5.17926C14.9899 5.22166 14.9092 5.24422 14.8267 5.24409H11.25V14.122C11.25 14.4292 11.1183 14.7237 10.8839 14.9409C10.6495 15.158 10.3315 15.28 10 15.28C9.66848 15.28 9.35054 15.158 9.11612 14.9409C8.8817 14.7237 8.75 14.4292 8.75 14.122V5.24409H5.17333C5.09082 5.24422 5.01011 5.22166 4.94146 5.17926C4.8728 5.13685 4.81928 5.07652 4.78768 5.0059C4.75608 4.93528 4.74783 4.85756 4.76397 4.7826C4.78011 4.70763 4.81991 4.63879 4.87833 4.5848L9.705 0.113401Z" fill="#0250E6"/>
</svg>
