<svg width="19" height="20" viewBox="0 0 19 20" fill="none" xmlns="http://www.w3.org/2000/svg">
<path d="M9.06447 2.19745C9.47016 1.78097 9.95442 1.44928 10.4892 1.22161C11.0239 0.993937 11.5985 0.874825 12.1796 0.87118C12.7607 0.867535 13.3367 0.97943 13.8742 1.20037C14.4118 1.42132 14.9002 1.74691 15.311 2.15827C15.7219 2.56963 16.0471 3.05856 16.2677 3.5967C16.4884 4.13485 16.6001 4.71149 16.5964 5.29319C16.5926 5.87488 16.4736 6.45004 16.2461 6.98531C16.0185 7.52059 15.6871 8.00531 15.271 8.41136L8.44381 15.2466C8.20002 15.4947 7.90957 15.692 7.58921 15.8272C7.26885 15.9624 6.92493 16.0327 6.57728 16.0342C6.22962 16.0356 5.88512 15.9682 5.56364 15.8357C5.24217 15.7032 4.95007 15.5083 4.70422 15.2623C4.45836 15.0162 4.2636 14.7238 4.13117 14.4021C3.99874 14.0803 3.93127 13.7354 3.93265 13.3874C3.93402 13.0394 4.00422 12.6951 4.13918 12.3744C4.27414 12.0537 4.47121 11.7629 4.719 11.5188L11.5471 4.68354L12.7884 5.92615L5.96031 12.7614C5.87647 12.8424 5.80959 12.9394 5.76358 13.0466C5.71757 13.1538 5.69335 13.2691 5.69234 13.3858C5.69133 13.5025 5.71354 13.6182 5.75768 13.7262C5.80182 13.8342 5.867 13.9323 5.94943 14.0149C6.03186 14.0974 6.12987 14.1626 6.23776 14.2068C6.34565 14.251 6.46125 14.2732 6.57781 14.2722C6.69437 14.2712 6.80957 14.247 6.91667 14.2009C7.02377 14.1548 7.12064 14.0879 7.20162 14.004L14.0306 7.16875C14.2752 6.92392 14.4692 6.63327 14.6015 6.31338C14.7339 5.9935 14.802 5.65065 14.802 5.3044C14.802 4.95816 14.7339 4.61531 14.6015 4.29543C14.4692 3.97554 14.2752 3.68488 14.0306 3.44006C13.786 3.19523 13.4957 3.00102 13.1761 2.86852C12.8566 2.73601 12.5141 2.66782 12.1682 2.66782C11.8223 2.66782 11.4798 2.73601 11.1603 2.86852C10.8407 3.00102 10.5504 3.19523 10.3058 3.44006L3.47769 10.2761C2.67813 11.1049 2.23571 12.2148 2.24571 13.3668C2.25571 14.5189 2.71733 15.621 3.53116 16.4357C4.34498 17.2503 5.44589 17.7124 6.59676 17.7224C7.74764 17.7325 8.8564 17.2896 9.68425 16.4892L17.1339 9.03266L18.3752 10.2761L10.9264 17.7327C9.77395 18.8864 8.21083 19.5345 6.58097 19.5345C4.9511 19.5345 3.38799 18.8864 2.2355 17.7327C1.08301 16.579 0.435547 15.0142 0.435547 13.3827C0.435547 11.7511 1.08301 10.1864 2.2355 9.03266L9.06447 2.19745Z" fill="#818181"/>
</svg>
