<svg width="25" height="25" viewBox="0 0 25 25" fill="none" xmlns="http://www.w3.org/2000/svg">
<g filter="url(#filter0_d_1_1308)">
<path d="M20.2628 7.53113H19.6252V7.5H12.5002V10.5H16.9743C16.3215 12.2464 14.5676 13.5 12.5002 13.5C9.87698 13.5 7.75016 11.4851 7.75016 9C7.75016 6.51488 9.87698 4.5 12.5002 4.5C13.711 4.5 14.8126 4.93275 15.6514 5.63963L17.8906 3.51825C16.4767 2.26988 14.5854 1.5 12.5002 1.5C8.12818 1.5 4.5835 4.85813 4.5835 9C4.5835 13.1419 8.12818 16.5 12.5002 16.5C16.8721 16.5 20.4168 13.1419 20.4168 9C20.4168 8.49713 20.3622 8.00625 20.2628 7.53113Z" fill="#FFC107"/>
<path d="M5.49609 5.50912L8.09711 7.31625C8.80091 5.6655 10.5054 4.5 12.5 4.5C13.7108 4.5 14.8124 4.93275 15.6512 5.63962L17.8904 3.51825C16.4765 2.26987 14.5852 1.5 12.5 1.5C9.45918 1.5 6.82214 3.12637 5.49609 5.50912Z" fill="#FF3D00"/>
<path d="M12.5 16.4998C14.5448 16.4998 16.4029 15.7584 17.8077 14.5528L15.3575 12.5885C14.5359 13.1804 13.5321 13.5005 12.5 13.4998C10.4408 13.4998 8.69244 12.2559 8.03377 10.52L5.45215 12.4044C6.76236 14.8333 9.42315 16.4998 12.5 16.4998Z" fill="#4CAF50"/>
<path d="M20.2627 7.53113H19.625V7.5H12.5V10.5H16.9741C16.6619 11.3312 16.0995 12.0574 15.3563 12.5891L15.3575 12.5884L17.8077 14.5526C17.6344 14.7019 20.4167 12.75 20.4167 9C20.4167 8.49713 20.362 8.00625 20.2627 7.53113Z" fill="#1976D2"/>
</g>
<defs>
<filter id="filter0_d_1_1308" x="-1" y="0" width="27" height="26" filterUnits="userSpaceOnUse" color-interpolation-filters="sRGB">
<feFlood flood-opacity="0" result="BackgroundImageFix"/>
<feColorMatrix in="SourceAlpha" type="matrix" values="0 0 0 0 0 0 0 0 0 0 0 0 0 0 0 0 0 0 127 0" result="hardAlpha"/>
<feOffset dy="4"/>
<feGaussianBlur stdDeviation="2"/>
<feComposite in2="hardAlpha" operator="out"/>
<feColorMatrix type="matrix" values="0 0 0 0 1 0 0 0 0 1 0 0 0 0 1 0 0 0 0.25 0"/>
<feBlend mode="normal" in2="BackgroundImageFix" result="effect1_dropShadow_1_1308"/>
<feBlend mode="normal" in="SourceGraphic" in2="effect1_dropShadow_1_1308" result="shape"/>
</filter>
</defs>
</svg>
