<svg width="27" height="21" viewBox="0 0 27 21" fill="none" xmlns="http://www.w3.org/2000/svg">
<g clip-path="url(#clip0_1_973)">
<path d="M16.4064 9.18758C15.724 9.18758 15.0885 9.29012 14.4999 9.49519C13.9113 9.70027 13.391 9.98055 12.9389 10.336C12.4868 10.6915 12.1328 11.1119 11.8768 11.5972C11.6209 12.0826 11.493 12.5919 11.493 13.1251C11.493 13.754 11.3181 14.3453 10.9684 14.899C10.6186 15.4527 10.1281 15.9176 9.4969 16.2935C10.0514 16.5191 10.5504 16.796 10.994 17.1241C11.4375 17.4522 11.8214 17.8214 12.1455 18.2315C12.4697 18.6417 12.7128 19.0792 12.8749 19.544C13.037 20.0089 13.1223 20.4942 13.1308 21.0001H11.493C11.493 20.46 11.365 19.9508 11.1091 19.4722C10.8532 18.9937 10.5035 18.5767 10.0599 18.2213C9.61633 17.8658 9.09172 17.5821 8.48607 17.3702C7.88042 17.1583 7.24492 17.0557 6.57956 17.0626C5.89714 17.0626 5.26163 17.1651 4.67304 17.3702C4.08446 17.5753 3.56411 17.8555 3.11201 18.211C2.6599 18.5665 2.3059 18.9869 2.04999 19.4722C1.79408 19.9576 1.66613 20.4669 1.66613 21.0001H0.0283203C0.0283203 20.5011 0.113623 20.0191 0.284228 19.5543C0.454833 19.0894 0.697945 18.6519 1.01356 18.2418C1.32918 17.8316 1.70878 17.4625 2.15235 17.1344C2.59593 16.8062 3.09921 16.526 3.66221 16.2935C3.03097 15.9176 2.54048 15.4527 2.19074 14.899C1.841 14.3453 1.66613 13.754 1.66613 13.1251C1.66613 12.585 1.79408 12.0758 2.04999 11.5972C2.3059 11.1187 2.65564 10.7017 3.09921 10.3463C3.54279 9.9908 4.06313 9.70711 4.66025 9.49519C5.25737 9.28328 5.89714 9.18074 6.57956 9.18758C7.36434 9.18758 8.10221 9.32771 8.79316 9.60799C9.48411 9.88826 10.0642 10.2813 10.5333 10.7872C10.8575 10.2745 11.2712 9.81648 11.7745 9.41316C12.2778 9.00984 12.8493 8.6783 13.4891 8.41853C12.8578 8.04256 12.3673 7.57771 12.0176 7.024C11.6679 6.47029 11.493 5.87898 11.493 5.25008C11.493 4.71004 11.6209 4.20076 11.8768 3.72224C12.1328 3.24373 12.4825 2.82674 12.9261 2.47127C13.3696 2.1158 13.89 1.83211 14.4871 1.62019C15.0842 1.40828 15.724 1.30574 16.4064 1.31258C17.0803 1.31258 17.7158 1.41512 18.3129 1.62019C18.91 1.82527 19.4304 2.10555 19.874 2.46101C20.3175 2.81648 20.6715 3.23689 20.936 3.72224C21.2004 4.2076 21.3284 4.71687 21.3198 5.25008C21.3198 5.87898 21.145 6.47029 20.7952 7.024C20.4455 7.57771 19.955 8.04256 19.3238 8.41853C19.8782 8.64412 20.3772 8.92097 20.8208 9.2491C21.2644 9.57722 21.6483 9.94637 21.9724 10.3565C22.2966 10.7667 22.5397 11.2042 22.7017 11.669C22.8638 12.1339 22.9491 12.6192 22.9576 13.1251H21.3198C21.3198 12.585 21.1919 12.0758 20.936 11.5972C20.6801 11.1187 20.3303 10.7017 19.8868 10.3463C19.4432 9.9908 18.9186 9.70711 18.3129 9.49519C17.7073 9.28328 17.0718 9.18074 16.4064 9.18758ZM13.1308 5.25008C13.1308 5.61238 13.2161 5.95076 13.3867 6.26521C13.5573 6.57967 13.7919 6.85994 14.0904 7.10603C14.389 7.35213 14.7345 7.54012 15.1269 7.67C15.5193 7.79988 15.9458 7.86824 16.4064 7.87508C16.8585 7.87508 17.2808 7.80672 17.6732 7.67C18.0655 7.53328 18.4153 7.34529 18.7224 7.10603C19.0295 6.86678 19.264 6.58992 19.4261 6.27547C19.5882 5.96101 19.6735 5.61922 19.682 5.25008C19.682 4.88777 19.5967 4.54939 19.4261 4.23494C19.2555 3.92049 19.0209 3.64021 18.7224 3.39412C18.4238 3.14803 18.0783 2.96004 17.686 2.83015C17.2936 2.70027 16.867 2.63191 16.4064 2.62508C15.9543 2.62508 15.5321 2.69344 15.1397 2.83015C14.7473 2.96687 14.3975 3.15486 14.0904 3.39412C13.7834 3.63338 13.5488 3.91023 13.3867 4.22469C13.2246 4.53914 13.1393 4.88094 13.1308 5.25008ZM6.57956 15.7501C7.03166 15.7501 7.45391 15.6817 7.8463 15.545C8.23869 15.4083 8.58843 15.2203 8.89552 14.981C9.20261 14.7418 9.43719 14.4649 9.59927 14.1505C9.76134 13.836 9.84665 13.4942 9.85518 13.1251C9.85518 12.7628 9.76987 12.4244 9.59927 12.1099C9.42866 11.7955 9.19408 11.5152 8.89552 11.2691C8.59696 11.023 8.25149 10.835 7.8591 10.7052C7.4667 10.5753 7.04019 10.5069 6.57956 10.5001C6.12745 10.5001 5.70521 10.5684 5.31281 10.7052C4.92042 10.8419 4.57068 11.0299 4.26359 11.2691C3.9565 11.5084 3.72192 11.7852 3.55985 12.0997C3.39777 12.4141 3.31247 12.7559 3.30394 13.1251C3.30394 13.4874 3.38924 13.8258 3.55985 14.1402C3.73045 14.4547 3.96503 14.7349 4.26359 14.981C4.56215 15.2271 4.90763 15.4151 5.30002 15.545C5.69241 15.6749 6.11892 15.7432 6.57956 15.7501ZM26.2333 18.3751H22.9576V21.0001H21.3198V18.3751H18.0442V17.0626H21.3198V14.4376H22.9576V17.0626H26.2333V18.3751Z" fill="#0250E6"/>
</g>
<defs>
<clipPath id="clip0_1_973">
<rect width="26.2049" height="21" fill="white" transform="translate(0.0283203)"/>
</clipPath>
</defs>
</svg>
