<svg width="19" height="15" viewBox="0 0 19 15" fill="none" xmlns="http://www.w3.org/2000/svg">
<g clip-path="url(#clip0_1_508)">
<path d="M15.017 7.96875C15.398 7.96875 15.756 8.02979 16.0909 8.15186C16.4258 8.27393 16.7202 8.43994 16.9743 8.6499C17.2283 8.85986 17.4275 9.10889 17.5719 9.39697C17.7162 9.68506 17.7884 9.99023 17.7884 10.3125C17.7884 10.5664 17.7422 10.813 17.6498 11.0522C17.5575 11.2915 17.4189 11.5137 17.2341 11.7188V14.8242L15.017 13.8867L12.7998 14.8242V11.7188C12.6208 11.5137 12.4851 11.2915 12.3928 11.0522C12.3004 10.813 12.2513 10.5664 12.2455 10.3125C12.2455 9.99023 12.3177 9.6875 12.462 9.4043C12.6064 9.12109 12.8027 8.87207 13.051 8.65723C13.2992 8.44238 13.5937 8.27393 13.9344 8.15186C14.275 8.02979 14.6359 7.96875 15.017 7.96875ZM15.017 8.90625C14.786 8.90625 14.5695 8.94287 14.3674 9.01611C14.1653 9.08936 13.9892 9.18945 13.8391 9.31641C13.689 9.44336 13.5706 9.59229 13.484 9.76318C13.3974 9.93408 13.3541 10.1172 13.3541 10.3125C13.3541 10.5078 13.3974 10.6909 13.484 10.8618C13.5706 11.0327 13.689 11.1816 13.8391 11.3086C13.9892 11.4355 14.1653 11.5356 14.3674 11.6089C14.5695 11.6821 14.786 11.7188 15.017 11.7188C15.2479 11.7188 15.4644 11.6821 15.6665 11.6089C15.8686 11.5356 16.0447 11.4355 16.1948 11.3086C16.3449 11.1816 16.4633 11.0327 16.5499 10.8618C16.6365 10.6909 16.6798 10.5078 16.6798 10.3125C16.6798 10.1172 16.6365 9.93408 16.5499 9.76318C16.4633 9.59229 16.3449 9.44336 16.1948 9.31641C16.0447 9.18945 15.8686 9.08936 15.6665 9.01611C15.4644 8.94287 15.2479 8.90625 15.017 8.90625ZM16.1255 13.3008V12.4585C15.7791 12.5903 15.4096 12.6562 15.017 12.6562C14.6243 12.6562 14.2548 12.5903 13.9084 12.4585V13.3008L15.017 12.832L16.1255 13.3008ZM15.017 3.75C14.711 3.75 14.4251 3.79883 14.1596 3.89648C13.894 3.99414 13.6572 4.12842 13.4494 4.29932C13.2415 4.47021 13.0827 4.66797 12.973 4.89258C12.8633 5.11719 12.8056 5.36133 12.7998 5.625C12.7998 6.07422 12.6814 6.49658 12.4447 6.89209C12.208 7.2876 11.8731 7.62207 11.4401 7.89551C11.5498 7.93945 11.6537 7.98828 11.7519 8.04199C11.85 8.0957 11.9511 8.15186 12.055 8.21045L11.4054 8.97217C11.1225 8.80127 10.8165 8.66943 10.4874 8.57666C10.1583 8.48389 9.82051 8.4375 9.47408 8.4375C9.01217 8.4375 8.58202 8.51074 8.18363 8.65723C7.78523 8.80371 7.43303 9.00391 7.12702 9.25781C6.821 9.51172 6.58139 9.81201 6.40817 10.1587C6.23496 10.5054 6.14835 10.8691 6.14835 11.25H5.03978C5.03978 10.8936 5.09751 10.5493 5.21299 10.2173C5.32847 9.88525 5.49302 9.57275 5.70665 9.27979C5.92029 8.98682 6.17722 8.72314 6.47746 8.48877C6.7777 8.25439 7.11836 8.0542 7.49943 7.88818C7.07217 7.61963 6.74017 7.2876 6.50344 6.89209C6.26672 6.49658 6.14835 6.07422 6.14835 5.625C6.14835 5.36621 6.09061 5.12451 5.97514 4.8999C5.85966 4.67529 5.70088 4.4751 5.4988 4.29932C5.29671 4.12354 5.06287 3.98926 4.79727 3.89648C4.53168 3.80371 4.24299 3.75488 3.9312 3.75C3.62519 3.75 3.33938 3.79883 3.07378 3.89648C2.80819 3.99414 2.57146 4.12842 2.3636 4.29932C2.15574 4.47021 1.99696 4.66797 1.88726 4.89258C1.77756 5.11719 1.71982 5.36133 1.71405 5.625H0.605469C0.605469 5.37109 0.645886 5.12451 0.726719 4.88525C0.807553 4.646 0.920143 4.41895 1.06449 4.2041C1.20883 3.98926 1.38782 3.79395 1.60146 3.61816C1.81509 3.44238 2.0547 3.29102 2.3203 3.16406C2.12976 2.99316 1.98253 2.79541 1.8786 2.5708C1.77467 2.34619 1.71982 2.11426 1.71405 1.875C1.71405 1.61621 1.77178 1.37451 1.88726 1.1499C2.00274 0.925293 2.16152 0.725098 2.3636 0.549316C2.56569 0.373535 2.79953 0.239258 3.06512 0.146484C3.33072 0.0537109 3.61941 0.00488281 3.9312 0C4.23721 0 4.52302 0.0488281 4.78861 0.146484C5.05421 0.244141 5.29094 0.378418 5.4988 0.549316C5.70665 0.720215 5.86543 0.917969 5.97514 1.14258C6.08484 1.36719 6.14258 1.61133 6.14835 1.875C6.14835 2.11426 6.09639 2.34619 5.99246 2.5708C5.88853 2.79541 5.73841 2.99316 5.5421 3.16406C6.01555 3.38379 6.4024 3.68652 6.70264 4.07227C6.85853 3.87695 7.03752 3.70117 7.23961 3.54492C7.44169 3.38867 7.6611 3.25684 7.89782 3.14941C8.13455 3.04199 8.38571 2.95898 8.65131 2.90039C8.91691 2.8418 9.19116 2.8125 9.47408 2.8125C9.75123 2.8125 10.0226 2.8418 10.2882 2.90039C10.5538 2.95898 10.805 3.04199 11.0417 3.14941C11.2784 3.25684 11.5007 3.38867 11.7086 3.54492C11.9164 3.70117 12.0954 3.87695 12.2455 4.07227C12.5458 3.68652 12.9326 3.38379 13.4061 3.16406C13.2155 2.99316 13.0683 2.79541 12.9644 2.5708C12.8604 2.34619 12.8056 2.11426 12.7998 1.875C12.7998 1.61621 12.8576 1.37451 12.973 1.1499C13.0885 0.925293 13.2473 0.725098 13.4494 0.549316C13.6515 0.373535 13.8853 0.239258 14.1509 0.146484C14.4165 0.0537109 14.7052 0.00488281 15.017 0C15.323 0 15.6088 0.0488281 15.8744 0.146484C16.14 0.244141 16.3767 0.378418 16.5846 0.549316C16.7924 0.720215 16.9512 0.917969 17.0609 1.14258C17.1706 1.36719 17.2283 1.61133 17.2341 1.875C17.2341 2.11426 17.1822 2.34619 17.0782 2.5708C16.9743 2.79541 16.8242 2.99316 16.6279 3.16406C16.8935 3.29102 17.1302 3.44238 17.338 3.61816C17.5459 3.79395 17.7249 3.98682 17.875 4.19678C18.0251 4.40674 18.1406 4.63379 18.2214 4.87793C18.3023 5.12207 18.3427 5.37109 18.3427 5.625H17.2341C17.2341 5.36621 17.1764 5.12451 17.0609 4.8999C16.9454 4.67529 16.7866 4.4751 16.5846 4.29932C16.3825 4.12354 16.1486 3.98926 15.883 3.89648C15.6174 3.80371 15.3288 3.75488 15.017 3.75ZM13.9084 1.875C13.9084 2.00684 13.9373 2.12891 13.995 2.24121C14.0527 2.35352 14.1307 2.45117 14.2288 2.53418C14.327 2.61719 14.4454 2.68555 14.5839 2.73926C14.7225 2.79297 14.8668 2.81738 15.017 2.8125C15.1729 2.8125 15.3172 2.78809 15.45 2.73926C15.5828 2.69043 15.6983 2.62451 15.7964 2.5415C15.8946 2.4585 15.9754 2.3584 16.0389 2.24121C16.1024 2.12402 16.1313 2.00195 16.1255 1.875C16.1255 1.74316 16.0967 1.62109 16.0389 1.50879C15.9812 1.39648 15.9032 1.29883 15.8051 1.21582C15.7069 1.13281 15.5886 1.06445 15.45 1.01074C15.3114 0.957031 15.1671 0.932617 15.017 0.9375C14.8611 0.9375 14.7167 0.961914 14.5839 1.01074C14.4511 1.05957 14.3357 1.12549 14.2375 1.2085C14.1393 1.2915 14.0585 1.3916 13.995 1.50879C13.9315 1.62598 13.9026 1.74805 13.9084 1.875ZM2.82262 1.875C2.82262 2.00684 2.85149 2.12891 2.90923 2.24121C2.96697 2.35352 3.04491 2.45117 3.14307 2.53418C3.24123 2.61719 3.35959 2.68555 3.49816 2.73926C3.63673 2.79297 3.78108 2.81738 3.9312 2.8125C4.08709 2.8125 4.23144 2.78809 4.36424 2.73926C4.49703 2.69043 4.61251 2.62451 4.71067 2.5415C4.80882 2.4585 4.88966 2.3584 4.95317 2.24121C5.01668 2.12402 5.04555 2.00195 5.03978 1.875C5.03978 1.74316 5.01091 1.62109 4.95317 1.50879C4.89543 1.39648 4.81748 1.29883 4.71933 1.21582C4.62117 1.13281 4.50281 1.06445 4.36424 1.01074C4.22566 0.957031 4.08132 0.932617 3.9312 0.9375C3.77531 0.9375 3.63096 0.961914 3.49816 1.01074C3.36536 1.05957 3.24989 1.12549 3.15173 1.2085C3.05358 1.2915 2.97274 1.3916 2.90923 1.50879C2.84572 1.62598 2.81685 1.74805 2.82262 1.875ZM7.25693 5.625C7.25693 5.88379 7.31467 6.12549 7.43014 6.3501C7.54562 6.57471 7.7044 6.7749 7.90649 6.95068C8.10857 7.12646 8.34241 7.26074 8.60801 7.35352C8.8736 7.44629 9.16229 7.49512 9.47408 7.5C9.7801 7.5 10.0659 7.45117 10.3315 7.35352C10.5971 7.25586 10.8338 7.12158 11.0417 6.95068C11.2495 6.77979 11.4083 6.58203 11.518 6.35742C11.6277 6.13281 11.6855 5.88867 11.6912 5.625C11.6912 5.36621 11.6335 5.12451 11.518 4.8999C11.4025 4.67529 11.2438 4.4751 11.0417 4.29932C10.8396 4.12354 10.6058 3.98926 10.3402 3.89648C10.0746 3.80371 9.78587 3.75488 9.47408 3.75C9.16807 3.75 8.88226 3.79883 8.61667 3.89648C8.35107 3.99414 8.11434 4.12842 7.90649 4.29932C7.69863 4.47021 7.53985 4.66797 7.43014 4.89258C7.32044 5.11719 7.2627 5.36133 7.25693 5.625Z" fill="white"/>
</g>
<defs>
<clipPath id="clip0_1_508">
<rect width="17.7372" height="15" fill="white" transform="translate(0.605469)"/>
</clipPath>
</defs>
</svg>
