<svg width="21" height="20" viewBox="0 0 21 20" fill="none" xmlns="http://www.w3.org/2000/svg">
<path d="M10.5 8.75C9.57174 8.75 8.6815 8.42076 8.02513 7.83471C7.36875 7.24866 7 6.4538 7 5.625C7 4.7962 7.36875 4.00134 8.02513 3.41529C8.6815 2.82924 9.57174 2.5 10.5 2.5C11.4283 2.5 12.3185 2.82924 12.9749 3.41529C13.6313 4.00134 14 4.7962 14 5.625C14 6.4538 13.6313 7.24866 12.9749 7.83471C12.3185 8.42076 11.4283 8.75 10.5 8.75ZM10.5 3.75C9.338 3.75 8.4 4.5875 8.4 5.625C8.4 6.6625 9.338 7.5 10.5 7.5C11.662 7.5 12.6 6.6625 12.6 5.625C12.6 4.5875 11.662 3.75 10.5 3.75Z" fill="#0250E6"/>
<path d="M18.9 13.75C18.508 13.75 18.2 13.475 18.2 13.125C18.2 12.775 18.508 12.5 18.9 12.5C19.292 12.5 19.6 12.225 19.6 11.875C19.6 11.0462 19.2313 10.2513 18.5749 9.66529C17.9185 9.07924 17.0283 8.75 16.1 8.75H14.7C14.308 8.75 14 8.475 14 8.125C14 7.775 14.308 7.5 14.7 7.5C15.862 7.5 16.8 6.6625 16.8 5.625C16.8 4.5875 15.862 3.75 14.7 3.75C14.308 3.75 14 3.475 14 3.125C14 2.775 14.308 2.5 14.7 2.5C15.6283 2.5 16.5185 2.82924 17.1749 3.41529C17.8313 4.00134 18.2 4.7962 18.2 5.625C18.2 6.4 17.892 7.1 17.36 7.65C19.446 8.15 21 9.85 21 11.875C21 12.9125 20.062 13.75 18.9 13.75ZM2.1 13.75C0.938 13.75 0 12.9125 0 11.875C0 9.85 1.54 8.15 3.64 7.65C3.122 7.1 2.8 6.4 2.8 5.625C2.8 4.7962 3.16875 4.00134 3.82513 3.41529C4.4815 2.82924 5.37174 2.5 6.3 2.5C6.692 2.5 7 2.775 7 3.125C7 3.475 6.692 3.75 6.3 3.75C5.138 3.75 4.2 4.5875 4.2 5.625C4.2 6.6625 5.138 7.5 6.3 7.5C6.692 7.5 7 7.775 7 8.125C7 8.475 6.692 8.75 6.3 8.75H4.9C3.97174 8.75 3.0815 9.07924 2.42513 9.66529C1.76875 10.2513 1.4 11.0462 1.4 11.875C1.4 12.225 1.708 12.5 2.1 12.5C2.492 12.5 2.8 12.775 2.8 13.125C2.8 13.475 2.492 13.75 2.1 13.75ZM14.7 17.5H6.3C5.138 17.5 4.2 16.6625 4.2 15.625V14.375C4.2 11.9625 6.398 10 9.1 10H11.9C14.602 10 16.8 11.9625 16.8 14.375V15.625C16.8 16.6625 15.862 17.5 14.7 17.5ZM9.1 11.25C8.17174 11.25 7.2815 11.5792 6.62513 12.1653C5.96875 12.7513 5.6 13.5462 5.6 14.375V15.625C5.6 15.975 5.908 16.25 6.3 16.25H14.7C15.092 16.25 15.4 15.975 15.4 15.625V14.375C15.4 13.5462 15.0313 12.7513 14.3749 12.1653C13.7185 11.5792 12.8283 11.25 11.9 11.25H9.1Z" fill="#0250E6"/>
</svg>
