<svg width="17" height="16" viewBox="0 0 17 16" fill="none" xmlns="http://www.w3.org/2000/svg">
<path d="M4.27051 14.6955V11.4375H1.85384C1.53337 11.4375 1.22603 11.319 0.999421 11.108C0.772814 10.897 0.645508 10.6109 0.645508 10.3125V2.4375C0.645508 2.13913 0.772814 1.85298 0.999421 1.64201C1.22603 1.43103 1.53337 1.3125 1.85384 1.3125H15.1455C15.466 1.3125 15.7733 1.43103 15.9999 1.64201C16.2265 1.85298 16.3538 2.13913 16.3538 2.4375V10.3125C16.3538 10.6109 16.2265 10.897 15.9999 11.108C15.7733 11.319 15.466 11.4375 15.1455 11.4375H8.49967L4.78647 14.8946C4.74422 14.9341 4.69034 14.9609 4.63167 14.9718C4.573 14.9827 4.51218 14.9771 4.45692 14.9558C4.40165 14.9345 4.35443 14.8984 4.32125 14.852C4.28806 14.8057 4.2704 14.7512 4.27051 14.6955Z" stroke="white"/>
<path d="M4.27051 8.0625H12.7288M4.27051 4.6875H12.7288" stroke="white" stroke-linecap="round"/>
</svg>
