<svg width="18" height="15" viewBox="0 0 18 15" fill="none" xmlns="http://www.w3.org/2000/svg">
<path d="M14.3083 9.5376L12.4184 9.35635C12.1962 9.33442 11.9709 9.35509 11.7596 9.41679C11.5482 9.4785 11.3563 9.57963 11.1981 9.7126L9.82909 10.8626C7.71688 9.96024 6.00006 8.51811 4.92582 6.74385L6.30231 5.5876C6.62225 5.31885 6.7785 4.94385 6.72641 4.5626L6.51064 2.9876C6.46846 2.68271 6.29426 2.4015 6.02123 2.1975C5.7482 1.99351 5.39539 1.88098 5.02998 1.88135H3.74278C2.90201 1.88135 2.2026 2.46885 2.25469 3.1751C2.64903 8.5126 7.73088 12.7751 14.0776 13.1063C14.9184 13.1501 15.6178 12.5626 15.6178 11.8563V10.7751C15.6252 10.1438 15.0597 9.6126 14.3083 9.5376Z" fill="white"/>
</svg>
