<svg width="12" height="12" viewBox="0 0 12 12" fill="none" xmlns="http://www.w3.org/2000/svg">
<path d="M2.66667 3.56937L3.75667 2.56063L2.66667 1.55062L1.58933 2.56063L2.66667 3.56937ZM1.07733 6.87563C0.770222 6.87563 0.514 6.77917 0.308667 6.58625C0.103333 6.39333 0.000444444 6.15313 0 5.86563V1.00937C0 0.721875 0.102889 0.481875 0.308667 0.289375C0.514445 0.096875 0.770444 0.000416667 1.07667 0H10.9233C11.23 0 11.486 0.0964584 11.6913 0.289375C11.8967 0.482292 11.9996 0.722292 12 1.00937V5.86563C12 6.15313 11.8971 6.39333 11.6913 6.58625C11.4856 6.77917 11.2293 6.87542 10.9227 6.875H8.876C8.89644 6.77083 8.91 6.66667 8.91667 6.5625C8.92333 6.45833 8.92422 6.35417 8.91933 6.25H10.9227C11.0253 6.25 11.1196 6.21 11.2053 6.13C11.2911 6.05 11.3338 5.96187 11.3333 5.86563V1.00937C11.3333 0.913541 11.2907 0.825417 11.2053 0.745C11.12 0.664583 11.0258 0.624583 10.9227 0.625H1.07733C0.974667 0.625 0.880444 0.665 0.794667 0.745C0.708889 0.825 0.666222 0.913333 0.666667 1.01V5.86563C0.666667 5.96146 0.709333 6.04958 0.794667 6.13C0.88 6.21042 0.974 6.25042 1.07667 6.25H3.08067C3.07533 6.35417 3.07622 6.45833 3.08333 6.5625C3.09044 6.66667 3.10422 6.77083 3.12467 6.875L1.07733 6.87563ZM8.99867 2.81312C9.18311 2.81312 9.34067 2.75229 9.47133 2.63063C9.602 2.50896 9.66711 2.36187 9.66667 2.18937C9.66622 2.01687 9.60156 1.86896 9.47267 1.74562C9.34378 1.62229 9.18667 1.56125 9.00133 1.5625C8.816 1.56375 8.65844 1.62437 8.52867 1.74437C8.39889 1.86437 8.33378 2.01167 8.33333 2.18625C8.33289 2.36083 8.39756 2.50854 8.52733 2.62937C8.65711 2.75021 8.81422 2.81187 8.99867 2.81312ZM2 11.5388V10.6588C2 10.4146 2.072 10.1862 2.216 9.97375C2.36 9.76125 2.55422 9.605 2.79867 9.505C3.30889 9.28958 3.83067 9.12583 4.364 9.01375C4.89733 8.90167 5.44267 8.84583 6 8.84625C6.55733 8.84667 7.10267 8.9025 7.636 9.01375C8.16933 9.125 8.69111 9.28875 9.20133 9.505C9.44578 9.605 9.64 9.76021 9.784 9.97062C9.928 10.1815 10 10.4096 10 10.655V11.5388H2ZM2.66667 10.9138H9.33333V10.6588C9.33333 10.5338 9.29445 10.4192 9.21667 10.315C9.13889 10.2108 9.03889 10.1327 8.91667 10.0806C8.45 9.88271 7.97222 9.73167 7.48333 9.6275C6.99444 9.52333 6.5 9.47125 6 9.47125C5.5 9.47125 5.00556 9.52333 4.51667 9.6275C4.02778 9.73167 3.55 9.88271 3.08333 10.0806C2.96111 10.1327 2.86111 10.2108 2.78333 10.315C2.70556 10.4192 2.66667 10.5338 2.66667 10.6588V10.9138ZM6 7.98063C5.53511 7.98063 5.14111 7.82917 4.818 7.52625C4.49489 7.22375 4.33333 6.85437 4.33333 6.41813C4.33333 5.98187 4.49489 5.6125 4.818 5.31C5.14111 5.0075 5.53511 4.85604 6 4.85563C6.46489 4.85521 6.85889 5.00667 7.182 5.31C7.50511 5.61333 7.66667 5.98271 7.66667 6.41813C7.66667 6.85354 7.50511 7.22292 7.182 7.52625C6.85889 7.82958 6.46489 7.98104 6 7.98063ZM6 7.35563C6.27778 7.35563 6.514 7.26458 6.70867 7.0825C6.90333 6.90042 7.00044 6.67896 7 6.41813C6.99956 6.15729 6.90244 5.93604 6.70867 5.75437C6.51489 5.57271 6.27867 5.48146 6 5.48063C5.72133 5.47979 5.48533 5.57104 5.292 5.75437C5.09867 5.93771 5.00133 6.15896 5 6.41813C4.99867 6.67729 5.096 6.89875 5.292 7.0825C5.488 7.26625 5.724 7.35729 6 7.35563Z" fill="#0250E6"/>
</svg>
