<svg width="18" height="18" viewBox="0 0 18 18" fill="none" xmlns="http://www.w3.org/2000/svg">
<path d="M3.6 7.8C5 10.6 7.4 12.9 10.2 14.4L12.4 12.2C12.7 11.9 13.1 11.8 13.4 12C14.5 12.4 15.7 12.6 17 12.6C17.6 12.6 18 13 18 13.6V17C18 17.6 17.6 18 17 18C7.6 18 0 10.4 0 1C0 0.4 0.5 0 1 0H4.5C5.1 0 5.5 0.4 5.5 1C5.5 2.2 5.7 3.4 6.1 4.6C6.2 4.9 6.1 5.3 5.9 5.6L3.6 7.8ZM11 0C10.4 0 10 0.4 10 1C10 1.6 10.4 2 11 2C11.6 2 12 1.6 12 1C12 0.4 11.6 0 11 0ZM14 0C13.4 0 13 0.4 13 1C13 1.6 13.4 2 14 2C14.6 2 15 1.6 15 1C15 0.4 14.6 0 14 0ZM17 0C16.4 0 16 0.4 16 1C16 1.6 16.4 2 17 2C17.6 2 18 1.6 18 1C18 0.4 17.6 0 17 0ZM11 3C10.4 3 10 3.4 10 4C10 4.6 10.4 5 11 5C11.6 5 12 4.6 12 4C12 3.4 11.6 3 11 3ZM14 3C13.4 3 13 3.4 13 4C13 4.6 13.4 5 14 5C14.6 5 15 4.6 15 4C15 3.4 14.6 3 14 3ZM17 3C16.4 3 16 3.4 16 4C16 4.6 16.4 5 17 5C17.6 5 18 4.6 18 4C18 3.4 17.6 3 17 3ZM11 6C10.4 6 10 6.4 10 7C10 7.6 10.4 8 11 8C11.6 8 12 7.6 12 7C12 6.4 11.6 6 11 6ZM14 6C13.4 6 13 6.4 13 7C13 7.6 13.4 8 14 8C14.6 8 15 7.6 15 7C15 6.4 14.6 6 14 6ZM17 6C16.4 6 16 6.4 16 7C16 7.6 16.4 8 17 8C17.6 8 18 7.6 18 7C18 6.4 17.6 6 17 6Z" fill="white"/>
</svg>
