<svg width="28" height="27" viewBox="0 0 28 27" fill="none" xmlns="http://www.w3.org/2000/svg">
<g clip-path="url(#clip0_10_981)">
<path d="M11.9576 9.00024L9.34877 0.000244141H12.4504C13.0568 0.000242145 13.6521 0.163643 14.1735 0.473265C14.695 0.782886 15.1234 1.22729 15.4136 1.75974L19.053 9.00024H11.9576ZM24.3754 11.2502H6.36077L3.4504 8.33762C3.18297 8.0558 2.82081 7.88276 2.43353 7.85178C2.04626 7.82079 1.6612 7.93403 1.35236 8.16975C1.04352 8.40546 0.832695 8.747 0.760413 9.12873C0.688131 9.51046 0.759489 9.90544 0.960772 10.2377L4.58327 16.8752H12.6248L8.64677 27.0002H12.0926C12.6876 27.0026 13.2724 26.8461 13.7866 26.5469C14.3008 26.2477 14.7258 25.8166 15.0176 25.2981L20.178 16.8752H27.7504V14.6252C27.7504 13.7301 27.3948 12.8717 26.7619 12.2388C26.1289 11.6058 25.2705 11.2502 24.3754 11.2502Z" fill="#BC9543"/>
</g>
<defs>
<clipPath id="clip0_10_981">
<rect width="27" height="27" fill="white" transform="translate(0.75 0.000244141)"/>
</clipPath>
</defs>
</svg>
