<svg width="27" height="20" viewBox="0 0 27 20" fill="none" xmlns="http://www.w3.org/2000/svg">
<path d="M16.4064 8.18782C15.724 8.18782 15.0885 8.29036 14.4999 8.49544C13.9113 8.70052 13.391 8.98079 12.9389 9.33626C12.4868 9.69173 12.1328 10.1121 11.8768 10.5975C11.6209 11.0828 11.493 11.5921 11.493 12.1253C11.493 12.7542 11.3181 13.3455 10.9684 13.8992C10.6186 14.453 10.1281 14.9178 9.4969 15.2938C10.0514 15.5194 10.5504 15.7962 10.994 16.1243C11.4375 16.4525 11.8214 16.8216 12.1455 17.2318C12.4697 17.6419 12.7128 18.0794 12.8749 18.5443C13.037 19.0091 13.1223 19.4945 13.1308 20.0003H11.493C11.493 19.4603 11.365 18.951 11.1091 18.4725C10.8532 17.994 10.5035 17.577 10.0599 17.2215C9.61633 16.866 9.09172 16.5824 8.48607 16.3704C7.88042 16.1585 7.24492 16.056 6.57956 16.0628C5.89714 16.0628 5.26163 16.1654 4.67304 16.3704C4.08446 16.5755 3.56411 16.8558 3.11201 17.2113C2.6599 17.5667 2.3059 17.9871 2.04999 18.4725C1.79408 18.9578 1.66613 19.4671 1.66613 20.0003H0.0283203C0.0283203 19.5013 0.113623 19.0194 0.284228 18.5545C0.454833 18.0897 0.697945 17.6522 1.01356 17.242C1.32918 16.8319 1.70878 16.4627 2.15235 16.1346C2.59593 15.8065 3.09921 15.5262 3.66221 15.2938C3.03097 14.9178 2.54048 14.453 2.19074 13.8992C1.841 13.3455 1.66613 12.7542 1.66613 12.1253C1.66613 11.5853 1.79408 11.076 2.04999 10.5975C2.3059 10.119 2.65564 9.70198 3.09921 9.34651C3.54279 8.99104 4.06313 8.70735 4.66025 8.49544C5.25737 8.28352 5.89714 8.18098 6.57956 8.18782C7.36434 8.18782 8.10221 8.32796 8.79316 8.60823C9.48411 8.8885 10.0642 9.28157 10.5333 9.78743C10.8575 9.27473 11.2712 8.81673 11.7745 8.41341C12.2778 8.01009 12.8493 7.67854 13.4891 7.41878C12.8578 7.0428 12.3673 6.57796 12.0176 6.02425C11.6679 5.47054 11.493 4.87923 11.493 4.25032C11.493 3.71028 11.6209 3.201 11.8768 2.72249C12.1328 2.24397 12.4825 1.82698 12.9261 1.47151C13.3696 1.11604 13.89 0.832352 14.4871 0.620438C15.0842 0.408524 15.724 0.305984 16.4064 0.31282C17.0803 0.31282 17.7158 0.415359 18.3129 0.620438C18.91 0.825516 19.4304 1.10579 19.874 1.46126C20.3175 1.81673 20.6715 2.23714 20.936 2.72249C21.2004 3.20784 21.3284 3.71712 21.3198 4.25032C21.3198 4.87923 21.145 5.47054 20.7952 6.02425C20.4455 6.57796 19.955 7.0428 19.3238 7.41878C19.8782 7.64436 20.3772 7.92122 20.8208 8.24934C21.2644 8.57747 21.6483 8.94661 21.9724 9.35677C22.2966 9.76692 22.5397 10.2044 22.7017 10.6693C22.8638 11.1341 22.9491 11.6195 22.9576 12.1253H21.3198C21.3198 11.5853 21.1919 11.076 20.936 10.5975C20.6801 10.119 20.3303 9.70198 19.8868 9.34651C19.4432 8.99104 18.9186 8.70735 18.3129 8.49544C17.7073 8.28352 17.0718 8.18098 16.4064 8.18782ZM13.1308 4.25032C13.1308 4.61263 13.2161 4.951 13.3867 5.26546C13.5573 5.57991 13.7919 5.86018 14.0904 6.10628C14.389 6.35237 14.7345 6.54036 15.1269 6.67024C15.5193 6.80013 15.9458 6.86848 16.4064 6.87532C16.8585 6.87532 17.2808 6.80696 17.6732 6.67024C18.0655 6.53352 18.4153 6.34554 18.7224 6.10628C19.0295 5.86702 19.264 5.59016 19.4261 5.27571C19.5882 4.96126 19.6735 4.61946 19.682 4.25032C19.682 3.88802 19.5967 3.54964 19.4261 3.23518C19.2555 2.92073 19.0209 2.64046 18.7224 2.39436C18.4238 2.14827 18.0783 1.96028 17.686 1.8304C17.2936 1.70052 16.867 1.63216 16.4064 1.62532C15.9543 1.62532 15.5321 1.69368 15.1397 1.8304C14.7473 1.96712 14.3975 2.15511 14.0904 2.39436C13.7834 2.63362 13.5488 2.91048 13.3867 3.22493C13.2246 3.53938 13.1393 3.88118 13.1308 4.25032ZM6.57956 14.7503C7.03166 14.7503 7.45391 14.682 7.8463 14.5452C8.23869 14.4085 8.58843 14.2205 8.89552 13.9813C9.20261 13.742 9.43719 13.4652 9.59927 13.1507C9.76134 12.8363 9.84665 12.4945 9.85518 12.1253C9.85518 11.763 9.76987 11.4246 9.59927 11.1102C9.42866 10.7957 9.19408 10.5155 8.89552 10.2694C8.59696 10.0233 8.25149 9.83528 7.8591 9.7054C7.4667 9.57552 7.04019 9.50716 6.57956 9.50032C6.12745 9.50032 5.70521 9.56868 5.31281 9.7054C4.92042 9.84212 4.57068 10.0301 4.26359 10.2694C3.9565 10.5086 3.72192 10.7855 3.55985 11.0999C3.39777 11.4144 3.31247 11.7562 3.30394 12.1253C3.30394 12.4876 3.38924 12.826 3.55985 13.1405C3.73045 13.4549 3.96503 13.7352 4.26359 13.9813C4.56215 14.2274 4.90763 14.4154 5.30002 14.5452C5.69241 14.6751 6.11892 14.7435 6.57956 14.7503ZM26.2333 17.3753H22.9576V20.0003H21.3198V17.3753H18.0442V16.0628H21.3198V13.4378H22.9576V16.0628H26.2333V17.3753Z" fill="#0250E6"/>
</svg>
