<svg width="27" height="20" viewBox="0 0 27 20" fill="none" xmlns="http://www.w3.org/2000/svg">
<path d="M16.6922 8.18745C16.0198 8.18745 15.3935 8.28999 14.8135 8.49507C14.2335 8.70015 13.7208 8.98042 13.2753 9.33589C12.8298 9.69136 12.4809 10.1118 12.2288 10.5971C11.9766 11.0825 11.8505 11.5918 11.8505 12.125C11.8505 12.7539 11.6782 13.3452 11.3336 13.8989C10.9889 14.4526 10.5056 14.9174 9.88358 15.2934C10.43 15.519 10.9217 15.7959 11.3588 16.124C11.7959 16.4521 12.1741 16.8212 12.4936 17.2314C12.813 17.6416 13.0525 18.0791 13.2122 18.5439C13.372 19.0087 13.456 19.4941 13.4644 20H11.8505C11.8505 19.4599 11.7244 18.9506 11.4723 18.4721C11.2201 17.9936 10.8755 17.5766 10.4384 17.2211C10.0013 16.8657 9.48431 16.582 8.8875 16.3701C8.29069 16.1582 7.66447 16.0556 7.00882 16.0625C6.33636 16.0625 5.71014 16.165 5.13014 16.3701C4.55015 16.5751 4.0374 16.8554 3.59189 17.2109C3.14639 17.5664 2.79755 17.9868 2.54538 18.4721C2.29321 18.9575 2.16712 19.4668 2.16712 20H0.553223C0.553223 19.5009 0.63728 19.019 0.805394 18.5542C0.973509 18.0893 1.21307 17.6518 1.52408 17.2417C1.8351 16.8315 2.20915 16.4624 2.64625 16.1342C3.08335 15.8061 3.57928 15.5258 4.13406 15.2934C3.51204 14.9174 3.02871 14.4526 2.68407 13.8989C2.33944 13.3452 2.16712 12.7539 2.16712 12.125C2.16712 11.5849 2.29321 11.0756 2.54538 10.5971C2.79755 10.1186 3.14219 9.70161 3.57928 9.34615C4.01638 8.99068 4.52913 8.70699 5.11753 8.49507C5.70593 8.28316 6.33636 8.18062 7.00882 8.18745C7.78215 8.18745 8.50924 8.32759 9.19011 8.60786C9.87097 8.88814 10.4426 9.2812 10.9049 9.78706C11.2243 9.27437 11.632 8.81636 12.1279 8.41304C12.6238 8.00972 13.187 7.67818 13.8175 7.41841C13.1954 7.04243 12.7121 6.57759 12.3675 6.02388C12.0228 5.47017 11.8505 4.87886 11.8505 4.24995C11.8505 3.70992 11.9766 3.20064 12.2288 2.72212C12.4809 2.24361 12.8256 1.82661 13.2627 1.47115C13.6998 1.11568 14.2125 0.831985 14.8009 0.620071C15.3893 0.408157 16.0198 0.305618 16.6922 0.312454C17.3563 0.312454 17.9825 0.414993 18.5709 0.620071C19.1593 0.82515 19.672 1.10542 20.1091 1.46089C20.5462 1.81636 20.8951 2.23677 21.1557 2.72212C21.4162 3.20747 21.5423 3.71675 21.5339 4.24995C21.5339 4.87886 21.3616 5.47017 21.017 6.02388C20.6723 6.57759 20.189 7.04243 19.567 7.41841C20.1133 7.644 20.6051 7.92085 21.0422 8.24898C21.4793 8.5771 21.8575 8.94624 22.177 9.3564C22.4964 9.76656 22.7359 10.2041 22.8956 10.6689C23.0554 11.1337 23.1394 11.6191 23.1478 12.125H21.5339C21.5339 11.5849 21.4078 11.0756 21.1557 10.5971C20.9035 10.1186 20.5589 9.70161 20.1218 9.34615C19.6847 8.99068 19.1677 8.70699 18.5709 8.49507C17.9741 8.28316 17.3479 8.18062 16.6922 8.18745ZM13.4644 4.24995C13.4644 4.61226 13.5485 4.95064 13.7166 5.26509C13.8847 5.57954 14.1159 5.85982 14.4101 6.10591C14.7043 6.35201 15.0447 6.53999 15.4314 6.66988C15.818 6.79976 16.2383 6.86812 16.6922 6.87495C17.1377 6.87495 17.5538 6.80659 17.9405 6.66988C18.3271 6.53316 18.6718 6.34517 18.9744 6.10591C19.277 5.86665 19.5081 5.5898 19.6678 5.27534C19.8276 4.96089 19.9116 4.61909 19.92 4.24995C19.92 3.88765 19.836 3.54927 19.6678 3.23482C19.4997 2.92036 19.2686 2.64009 18.9744 2.394C18.6802 2.1479 18.3397 1.95992 17.9531 1.83003C17.5664 1.70015 17.1461 1.63179 16.6922 1.62495C16.2467 1.62495 15.8306 1.69331 15.444 1.83003C15.0573 1.96675 14.7127 2.15474 14.4101 2.394C14.1075 2.63326 13.8763 2.91011 13.7166 3.22456C13.5569 3.53902 13.4728 3.88081 13.4644 4.24995ZM7.00882 14.75C7.45432 14.75 7.87041 14.6816 8.25707 14.5449C8.64373 14.4082 8.98837 14.2202 9.29098 13.9809C9.59358 13.7417 9.82474 13.4648 9.98445 13.1503C10.1442 12.8359 10.2282 12.4941 10.2366 12.125C10.2366 11.7626 10.1526 11.4243 9.98445 11.1098C9.81633 10.7954 9.58518 10.5151 9.29098 10.269C8.99678 10.0229 8.65634 9.83492 8.26968 9.70503C7.88302 9.57515 7.46273 9.50679 7.00882 9.49995C6.56332 9.49995 6.14723 9.56831 5.76057 9.70503C5.37391 9.84175 5.02927 10.0297 4.72667 10.269C4.42406 10.5083 4.1929 10.7851 4.03319 11.0996C3.87348 11.414 3.78943 11.7558 3.78102 12.125C3.78102 12.4873 3.86508 12.8256 4.03319 13.1401C4.20131 13.4545 4.43247 13.7348 4.72667 13.9809C5.02087 14.227 5.3613 14.415 5.74796 14.5449C6.13463 14.6748 6.55491 14.7431 7.00882 14.75ZM26.3756 17.375H23.1478V20H21.5339V17.375H18.3061V16.0625H21.5339V13.4375H23.1478V16.0625H26.3756V17.375Z" fill="white"/>
</svg>
