<svg width="24" height="17" viewBox="0 0 24 17" fill="none" xmlns="http://www.w3.org/2000/svg">
<path d="M3.59966 14.7288C4.7462 15.5834 6.5928 15.5834 10.285 15.5834H14.2014C17.8937 15.5834 19.7403 15.5834 20.8868 14.7288C22.0343 13.875 22.0343 12.4998 22.0343 9.75005C22.0343 8.89692 22.0343 8.1765 22 7.56254M20.8868 4.77127C19.7403 3.91668 17.8937 3.91668 14.2014 3.91668H10.285C6.5928 3.91668 4.7462 3.91668 3.59966 4.77127C2.45215 5.62513 2.45215 7.00035 2.45215 9.75005C2.45215 10.6032 2.45215 11.3236 2.48642 11.9376M12.2432 1C14.0898 1 15.0121 1 15.5859 1.42729C16.1597 1.85459 16.1597 2.54147 16.1597 3.91668M8.90056 1.42729C8.3268 1.85459 8.3268 2.54147 8.3268 3.91668" stroke="white" stroke-width="1.5" stroke-linecap="round"/>
<path d="M12.2434 13.2665C13.5417 13.2665 14.5933 12.4985 14.5933 11.5515C14.5933 10.6044 13.5417 9.83544 12.2434 9.83544C10.9451 9.83544 9.89355 9.0675 9.89355 8.1194C9.89355 7.17234 10.9451 6.40439 12.2434 6.40439M12.2434 13.2665C10.9451 13.2665 9.89355 12.4985 9.89355 11.5515M12.2434 13.2665V13.9531M12.2434 6.40439V5.71777M12.2434 6.40439C13.5417 6.40439 14.5933 7.17234 14.5933 8.1194" stroke="white" stroke-width="1.5" stroke-linecap="round"/>
</svg>
