<svg width="18" height="19" viewBox="0 0 18 19" fill="none" xmlns="http://www.w3.org/2000/svg">
<path d="M8.53719 1.39422C8.74248 0.978251 9.33564 0.97825 9.54093 1.39422L11.5405 5.44585C11.6221 5.61103 11.7796 5.72552 11.9619 5.75201L16.4332 6.40172C16.8922 6.46842 17.0755 7.03255 16.7433 7.35633L13.5079 10.5101C13.376 10.6387 13.3158 10.8239 13.347 11.0055L14.1107 15.4586C14.1891 15.9158 13.7093 16.2645 13.2987 16.0486L9.29949 13.9461C9.13645 13.8604 8.94167 13.8604 8.77863 13.9461L4.77942 16.0486C4.36884 16.2645 3.88897 15.9158 3.96738 15.4586L4.73116 11.0055C4.7623 10.8239 4.70211 10.6387 4.5702 10.5101L1.33478 7.35633C1.00261 7.03255 1.18591 6.46842 1.64495 6.40172L6.1162 5.75201C6.29849 5.72552 6.45607 5.61103 6.53759 5.44585L8.53719 1.39422Z" fill="#FFDA18"/>
</svg>
