<svg width="61" height="20" viewBox="0 0 61 20" fill="none" xmlns="http://www.w3.org/2000/svg">
<path d="M61 10.3338C61 6.91591 58.8988 4.21896 54.8831 4.21896C50.8502 4.21896 48.4102 6.916 48.4102 10.3072C48.4102 14.3258 51.2909 16.3552 55.4252 16.3552C57.4416 16.3552 58.9666 15.9947 60.1188 15.4874V12.8171C58.9667 13.2711 57.645 13.5515 55.9675 13.5515C54.3238 13.5515 52.8666 13.0975 52.6803 11.5221H60.9662C60.9662 11.3484 61 10.6542 61 10.3338ZM52.6294 9.06547C52.6294 7.55679 53.7987 6.92924 54.8662 6.92924C55.8997 6.92924 57.0012 7.55679 57.0012 9.06547H52.6294ZM41.8698 4.21896C40.2091 4.21896 39.1416 4.83309 38.5487 5.26041L38.3283 4.43262H34.6006V20L38.8366 19.2925L38.8537 15.5141C39.4637 15.8612 40.3616 16.3552 41.8528 16.3552C44.8859 16.3552 47.6478 14.4326 47.6478 10.2003C47.6309 6.32843 44.8351 4.21896 41.8698 4.21896ZM40.853 13.4179C39.8533 13.4179 39.2601 13.1376 38.8535 12.7905L38.8365 7.83711C39.2771 7.44996 39.8871 7.18298 40.853 7.18298C42.3949 7.18298 43.4624 8.54474 43.4624 10.2937C43.4624 12.0828 42.4118 13.4179 40.853 13.4179ZM28.7716 3.43125L33.0247 2.71028V0L28.7716 0.707634V3.43125ZM28.7716 4.44595H33.0247V16.1282H28.7716V4.44595ZM24.2137 5.43389L23.9425 4.44595H20.2825V16.1282H24.5187V8.21101C25.5183 7.18298 27.2128 7.36989 27.7381 7.51671V4.44595C27.1959 4.2857 25.2134 3.99196 24.2137 5.43389ZM15.7413 1.54876L11.6069 2.24297L11.59 12.9373C11.59 14.9134 13.4709 16.3685 15.9787 16.3685C17.3681 16.3685 18.3847 16.1683 18.9438 15.928V13.2177C18.4017 13.3913 15.7244 14.0054 15.7244 12.0294V7.28972H18.9438V4.44595H15.7244L15.7413 1.54876ZM4.28692 7.83711C4.28692 7.31647 4.82913 7.11614 5.72733 7.11614C7.015 7.11614 8.64163 7.4233 9.92942 7.97069V4.83309C8.52308 4.39253 7.13366 4.21896 5.72733 4.21896C2.2875 4.21896 0 5.63422 0 7.99745C0 11.6823 6.43884 11.0949 6.43884 12.6837C6.43884 13.2978 5.76116 13.4981 4.81221 13.4981C3.40587 13.4981 1.60971 13.0441 0.186336 12.43V15.6076C1.76221 16.1416 3.355 16.3685 4.81221 16.3685C8.33663 16.3685 10.7597 14.9934 10.7597 12.6035C10.7428 8.62491 4.28692 9.33245 4.28692 7.83711Z" fill="#635BFF"/>
</svg>
