<svg width="21" height="18" viewBox="0 0 21 18" fill="none" xmlns="http://www.w3.org/2000/svg">
<path fill-rule="evenodd" clip-rule="evenodd" d="M9.20185 0.65C9.57433 0.390356 10.0274 0.25 10.493 0.25C10.9586 0.25 11.4116 0.390356 11.7841 0.65L19.3156 5.9C19.5829 6.08629 19.7998 6.32786 19.9492 6.60557C20.0986 6.88328 20.1764 7.18951 20.1764 7.5V16C20.1764 16.5304 19.9496 17.0391 19.5461 17.4142C19.1425 17.7893 18.5952 18 18.0245 18H2.96144C2.39073 18 1.84339 17.7893 1.43984 17.4142C1.03628 17.0391 0.80957 16.5304 0.80957 16V7.5C0.80957 7.18951 0.88735 6.88328 1.03675 6.60557C1.18615 6.32786 1.40306 6.08629 1.67032 5.9L9.20185 0.65ZM11.5689 7C11.5689 6.73478 11.4555 6.48043 11.2538 6.29289C11.052 6.10536 10.7783 6 10.493 6C10.2076 6 9.93394 6.10536 9.73217 6.29289C9.53039 6.48043 9.41703 6.73478 9.41703 7V13C9.41703 13.2652 9.53039 13.5196 9.73217 13.7071C9.93394 13.8946 10.2076 14 10.493 14C10.7783 14 11.052 13.8946 11.2538 13.7071C11.4555 13.5196 11.5689 13.2652 11.5689 13V7ZM7.26517 10C7.26517 9.73478 7.15181 9.48043 6.95003 9.29289C6.74826 9.10536 6.47459 9 6.18924 9C5.90388 9 5.63021 9.10536 5.42844 9.29289C5.22666 9.48043 5.1133 9.73478 5.1133 10V13C5.1133 13.2652 5.22666 13.5196 5.42844 13.7071C5.63021 13.8946 5.90388 14 6.18924 14C6.47459 14 6.74826 13.8946 6.95003 13.7071C7.15181 13.5196 7.26517 13.2652 7.26517 13V10ZM15.8726 12C15.8726 11.7348 15.7593 11.4804 15.5575 11.2929C15.3557 11.1054 15.0821 11 14.7967 11C14.5113 11 14.2377 11.1054 14.0359 11.2929C13.8341 11.4804 13.7208 11.7348 13.7208 12V13C13.7208 13.2652 13.8341 13.5196 14.0359 13.7071C14.2377 13.8946 14.5113 14 14.7967 14C15.0821 14 15.3557 13.8946 15.5575 13.7071C15.7593 13.5196 15.8726 13.2652 15.8726 13V12Z" fill="white"/>
</svg>
