<svg width="27" height="20" viewBox="0 0 27 20" fill="none" xmlns="http://www.w3.org/2000/svg">
<path d="M16.6922 8.18733C16.0198 8.18733 15.3935 8.28987 14.8135 8.49495C14.2335 8.70003 13.7208 8.9803 13.2753 9.33577C12.8298 9.69124 12.4809 10.1116 12.2288 10.597C11.9766 11.0824 11.8505 11.5916 11.8505 12.1248C11.8505 12.7537 11.6782 13.345 11.3336 13.8988C10.9889 14.4525 10.5056 14.9173 9.88358 15.2933C10.43 15.5189 10.9217 15.7957 11.3588 16.1239C11.7959 16.452 12.1741 16.8211 12.4936 17.2313C12.813 17.6414 13.0525 18.0789 13.2122 18.5438C13.372 19.0086 13.456 19.494 13.4644 19.9998H11.8505C11.8505 19.4598 11.7244 18.9505 11.4723 18.472C11.2201 17.9935 10.8755 17.5765 10.4384 17.221C10.0013 16.8656 9.48431 16.5819 8.8875 16.3699C8.29069 16.158 7.66447 16.0555 7.00882 16.0623C6.33636 16.0623 5.71014 16.1649 5.13014 16.3699C4.55015 16.575 4.0374 16.8553 3.59189 17.2108C3.14639 17.5662 2.79755 17.9866 2.54538 18.472C2.29321 18.9574 2.16712 19.4666 2.16712 19.9998H0.553223C0.553223 19.5008 0.63728 19.0189 0.805394 18.554C0.973509 18.0892 1.21307 17.6517 1.52408 17.2415C1.8351 16.8314 2.20915 16.4622 2.64625 16.1341C3.08335 15.806 3.57928 15.5257 4.13406 15.2933C3.51204 14.9173 3.02871 14.4525 2.68407 13.8988C2.33944 13.345 2.16712 12.7537 2.16712 12.1248C2.16712 11.5848 2.29321 11.0755 2.54538 10.597C2.79755 10.1185 3.14219 9.70149 3.57928 9.34602C4.01638 8.99055 4.52913 8.70686 5.11753 8.49495C5.70593 8.28304 6.33636 8.1805 7.00882 8.18733C7.78215 8.18733 8.50924 8.32747 9.19011 8.60774C9.87097 8.88802 10.4426 9.28108 10.9049 9.78694C11.2243 9.27425 11.632 8.81624 12.1279 8.41292C12.6238 8.0096 13.187 7.67805 13.8175 7.41829C13.1954 7.04231 12.7121 6.57747 12.3675 6.02376C12.0228 5.47005 11.8505 4.87874 11.8505 4.24983C11.8505 3.70979 11.9766 3.20052 12.2288 2.722C12.4809 2.24348 12.8256 1.82649 13.2627 1.47102C13.6998 1.11555 14.2125 0.831863 14.8009 0.619949C15.3893 0.408035 16.0198 0.305496 16.6922 0.312332C17.3563 0.312332 17.9825 0.414871 18.5709 0.619949C19.1593 0.825027 19.672 1.1053 20.1091 1.46077C20.5462 1.81624 20.8951 2.23665 21.1557 2.722C21.4162 3.20735 21.5423 3.71663 21.5339 4.24983C21.5339 4.87874 21.3616 5.47005 21.017 6.02376C20.6723 6.57747 20.189 7.04231 19.567 7.41829C20.1133 7.64388 20.6051 7.92073 21.0422 8.24886C21.4793 8.57698 21.8575 8.94612 22.177 9.35628C22.4964 9.76643 22.7359 10.2039 22.8956 10.6688C23.0554 11.1336 23.1394 11.619 23.1478 12.1248H21.5339C21.5339 11.5848 21.4078 11.0755 21.1557 10.597C20.9035 10.1185 20.5589 9.70149 20.1218 9.34602C19.6847 8.99055 19.1677 8.70686 18.5709 8.49495C17.9741 8.28304 17.3479 8.1805 16.6922 8.18733ZM13.4644 4.24983C13.4644 4.61214 13.5485 4.95052 13.7166 5.26497C13.8847 5.57942 14.1159 5.8597 14.4101 6.10579C14.7043 6.35188 15.0447 6.53987 15.4314 6.66975C15.818 6.79964 16.2383 6.868 16.6922 6.87483C17.1377 6.87483 17.5538 6.80647 17.9405 6.66975C18.3271 6.53304 18.6718 6.34505 18.9744 6.10579C19.277 5.86653 19.5081 5.58968 19.6678 5.27522C19.8276 4.96077 19.9116 4.61897 19.92 4.24983C19.92 3.88753 19.836 3.54915 19.6678 3.2347C19.4997 2.92024 19.2686 2.63997 18.9744 2.39388C18.6802 2.14778 18.3397 1.95979 17.9531 1.82991C17.5664 1.70003 17.1461 1.63167 16.6922 1.62483C16.2467 1.62483 15.8306 1.69319 15.444 1.82991C15.0573 1.96663 14.7127 2.15462 14.4101 2.39388C14.1075 2.63313 13.8763 2.90999 13.7166 3.22444C13.5569 3.53889 13.4728 3.88069 13.4644 4.24983ZM7.00882 14.7498C7.45432 14.7498 7.87041 14.6815 8.25707 14.5448C8.64373 14.408 8.98837 14.22 9.29098 13.9808C9.59358 13.7415 9.82474 13.4647 9.98445 13.1502C10.1442 12.8358 10.2282 12.494 10.2366 12.1248C10.2366 11.7625 10.1526 11.4241 9.98445 11.1097C9.81633 10.7952 9.58518 10.515 9.29098 10.2689C8.99678 10.0228 8.65634 9.83479 8.26968 9.70491C7.88302 9.57503 7.46273 9.50667 7.00882 9.49983C6.56332 9.49983 6.14723 9.56819 5.76057 9.70491C5.37391 9.84163 5.02927 10.0296 4.72667 10.2689C4.42406 10.5081 4.1929 10.785 4.03319 11.0994C3.87348 11.4139 3.78943 11.7557 3.78102 12.1248C3.78102 12.4871 3.86508 12.8255 4.03319 13.14C4.20131 13.4544 4.43247 13.7347 4.72667 13.9808C5.02087 14.2269 5.3613 14.4149 5.74796 14.5448C6.13463 14.6746 6.55491 14.743 7.00882 14.7498ZM26.3756 17.3748H23.1478V19.9998H21.5339V17.3748H18.3061V16.0623H21.5339V13.4373H23.1478V16.0623H26.3756V17.3748Z" fill="white"/>
</svg>
