<svg width="24" height="20" viewBox="0 0 24 20" fill="none" xmlns="http://www.w3.org/2000/svg">
<g clip-path="url(#clip0_1_978)">
<path d="M10.0283 8.22767C9.17643 8.22767 8.34373 8.00726 7.63554 7.59435C6.92735 7.18144 6.37549 6.59457 6.04979 5.90801C5.7241 5.22145 5.63921 4.46605 5.80586 3.73739C5.97251 3.00873 6.38321 2.33957 6.986 1.81457C7.58879 1.28956 8.35657 0.932321 9.1922 0.78804C10.0278 0.643759 10.8937 0.718925 11.6804 1.00403C12.467 1.28913 13.139 1.77135 13.6114 2.38968C14.0837 3.00801 14.3352 3.73465 14.3339 4.47767C14.3305 5.47229 13.8756 6.42525 13.0687 7.12803C12.2618 7.83082 11.1686 8.2262 10.0283 8.22767ZM10.0283 1.83322C9.42865 1.83322 8.84248 1.98832 8.34391 2.27889C7.84534 2.56947 7.45675 2.98247 7.22728 3.46568C6.99782 3.94889 6.93778 4.4806 7.05476 4.99357C7.17174 5.50654 7.46049 5.97774 7.88449 6.34757C8.30849 6.7174 8.8487 6.96926 9.4368 7.0713C10.0249 7.17333 10.6345 7.12097 11.1885 6.92081C11.7425 6.72066 12.216 6.38172 12.5491 5.94684C12.8822 5.51196 13.06 5.00069 13.06 4.47767C13.06 3.77632 12.7406 3.10369 12.1721 2.60776C11.6035 2.11183 10.8323 1.83322 10.0283 1.83322Z" fill="#0250E6"/>
<path d="M11.1366 17.6C10.9974 17.4785 10.89 17.3322 10.8219 17.1711C10.7537 17.0099 10.7264 16.8378 10.7417 16.6666H3.226V13.4555C4.1291 12.615 5.22449 11.9492 6.44126 11.5013C7.65803 11.0535 8.96907 10.8334 10.2895 10.8555H10.7481C10.7189 10.6692 10.7393 10.4796 10.8078 10.3014C10.8763 10.1231 10.991 9.96102 11.143 9.82774L11.2194 9.76662C10.9201 9.76662 10.5825 9.73329 10.2895 9.73329C8.73566 9.70111 7.19304 9.97051 5.77318 10.522C4.35331 11.0735 3.09169 11.8933 2.07953 12.9222C1.99685 13.0183 1.95215 13.1353 1.95215 13.2555V16.6666C1.95215 16.9613 2.08636 17.2439 2.32525 17.4523C2.56414 17.6607 2.88815 17.7777 3.226 17.7777H11.315L11.1366 17.6Z" fill="#0250E6"/>
<path d="M17.7925 9.04992C17.8237 9.04423 17.8559 9.04423 17.8871 9.04992C17.8558 9.04492 17.8238 9.04492 17.7925 9.04992Z" fill="#0250E6"/>
<path d="M22.1301 12.9556L20.8562 12.6168C20.7652 12.345 20.6413 12.0824 20.4868 11.8334L21.1237 10.8001C21.1445 10.7588 21.1494 10.7127 21.138 10.6687C21.1265 10.6247 21.0992 10.5851 21.06 10.5556L20.1365 9.75009C20.1016 9.71711 20.0549 9.69535 20.0041 9.68829C19.9533 9.68124 19.9012 9.68931 19.8563 9.7112L18.6843 10.2668C18.3957 10.1253 18.0903 10.0116 17.7735 9.92787L17.385 8.81676C17.3685 8.77586 17.3372 8.74074 17.2959 8.7167C17.2545 8.69265 17.2053 8.68097 17.1557 8.68343H15.85C15.7998 8.68292 15.7509 8.69677 15.7106 8.72286C15.6703 8.74895 15.641 8.78584 15.6271 8.82787L15.2385 9.93898C14.9195 10.0199 14.6119 10.1317 14.3214 10.2723L13.1622 9.71676C13.1182 9.69529 13.0672 9.68744 13.0174 9.6945C12.9677 9.70157 12.9222 9.72312 12.8883 9.75565L11.9456 10.5556C11.9107 10.5878 11.8882 10.6286 11.8813 10.6725C11.8745 10.7164 11.8836 10.761 11.9074 10.8001L12.5443 11.8112C12.3759 12.0616 12.2412 12.3282 12.1431 12.6056L10.8692 12.939C10.821 12.9511 10.7788 12.9767 10.7488 13.0119C10.7189 13.047 10.703 13.0897 10.7036 13.1334V14.2723C10.7074 14.3124 10.7253 14.3506 10.755 14.3814C10.7847 14.4123 10.8246 14.4343 10.8692 14.4445L12.1431 14.7834C12.2372 15.0559 12.3654 15.3186 12.5252 15.5668L11.8883 16.6279C11.864 16.6659 11.8546 16.7098 11.8615 16.7529C11.8684 16.796 11.8912 16.836 11.9265 16.8668L12.8501 17.6723C12.8861 17.7037 12.9327 17.7244 12.983 17.7313C13.0333 17.7383 13.0849 17.7313 13.1303 17.7112L14.3214 17.1556C14.6048 17.2886 14.9037 17.3948 15.2131 17.4723L15.5952 18.5834C15.6109 18.6245 15.6407 18.6605 15.6806 18.6863C15.7204 18.7122 15.7685 18.7267 15.8181 18.7279H17.1238C17.1737 18.7275 17.2222 18.7133 17.2623 18.6873C17.3023 18.6614 17.3319 18.625 17.3468 18.5834L17.7353 17.4445C18.0405 17.3669 18.3352 17.2608 18.6142 17.1279L19.818 17.6834C19.8623 17.7039 19.913 17.7112 19.9625 17.7042C20.0119 17.6972 20.0574 17.6762 20.0919 17.6445L21.06 16.889C21.0861 16.8564 21.1 16.8176 21.1 16.7779C21.1 16.7381 21.0861 16.6994 21.06 16.6668L20.4231 15.6223C20.5777 15.3772 20.7016 15.1183 20.7925 14.8501L22.0664 14.5112C22.1146 14.4991 22.1569 14.4735 22.1868 14.4383C22.2167 14.4032 22.2326 14.3605 22.232 14.3168V13.1501C22.2378 13.1126 22.2314 13.0744 22.2133 13.04C22.1953 13.0056 22.1664 12.9763 22.1301 12.9556ZM16.506 15.5556C16.0847 15.5567 15.6726 15.4487 15.3217 15.2452C14.9709 15.0418 14.6973 14.752 14.5355 14.4128C14.3737 14.0735 14.331 13.6999 14.4129 13.3395C14.4948 12.979 14.6975 12.6479 14.9954 12.388C15.2933 12.1282 15.6729 11.9513 16.0862 11.8799C16.4995 11.8085 16.9277 11.8457 17.3167 11.9869C17.7057 12.128 18.0379 12.3667 18.2711 12.6727C18.5044 12.9787 18.6282 13.3382 18.627 13.7056C18.6253 14.1958 18.4013 14.6656 18.0039 15.0122C17.6065 15.3588 17.068 15.5542 16.506 15.5556Z" fill="#0250E6"/>
</g>
<defs>
<clipPath id="clip0_1_978">
<rect width="22.9293" height="20" fill="white" transform="translate(0.678223)"/>
</clipPath>
</defs>
</svg>
