<svg width="22" height="17" viewBox="0 0 22 17" fill="none" xmlns="http://www.w3.org/2000/svg">
<path d="M2.07516 14.7288C3.23868 15.5834 5.11264 15.5834 8.85955 15.5834H12.834C16.5809 15.5834 18.4549 15.5834 19.6184 14.7288C20.7829 13.875 20.7829 12.4998 20.7829 9.75005C20.7829 8.89692 20.7829 8.1765 20.7481 7.56254M19.6184 4.77127C18.4549 3.91668 16.5809 3.91668 12.834 3.91668H8.85955C5.11264 3.91668 3.23868 3.91668 2.07516 4.77127C0.910644 5.62513 0.910645 7.00035 0.910645 9.75005C0.910645 10.6032 0.910645 11.3236 0.945421 11.9376M10.8468 1C12.7207 1 13.6567 1 14.239 1.42729C14.8212 1.85459 14.8212 2.54147 14.8212 3.91668M7.45458 1.42729C6.87233 1.85459 6.87233 2.54147 6.87233 3.91668" stroke="#0250E6" stroke-width="1.5" stroke-linecap="round"/>
<path d="M10.8471 13.2667C12.1646 13.2667 13.2317 12.4988 13.2317 11.5517C13.2317 10.6047 12.1646 9.83569 10.8471 9.83569C9.52954 9.83569 8.4624 9.06774 8.4624 8.11965C8.4624 7.17258 9.52954 6.40464 10.8471 6.40464M10.8471 13.2667C9.52954 13.2667 8.4624 12.4988 8.4624 11.5517M10.8471 13.2667V13.9534M10.8471 6.40464V5.71802M10.8471 6.40464C12.1646 6.40464 13.2317 7.17258 13.2317 8.11965" stroke="#0250E6" stroke-width="1.5" stroke-linecap="round"/>
</svg>
