<svg width="18" height="15" viewBox="0 0 18 15" fill="none" xmlns="http://www.w3.org/2000/svg">
<g clip-path="url(#clip0_1_988)">
<path d="M14.625 7.96875C15.0117 7.96875 15.375 8.02979 15.7148 8.15186C16.0547 8.27393 16.3535 8.43994 16.6113 8.6499C16.8691 8.85986 17.0713 9.10889 17.2178 9.39697C17.3643 9.68506 17.4375 9.99023 17.4375 10.3125C17.4375 10.5664 17.3906 10.813 17.2969 11.0522C17.2031 11.2915 17.0625 11.5137 16.875 11.7188V14.8242L14.625 13.8867L12.375 14.8242V11.7188C12.1934 11.5137 12.0557 11.2915 11.9619 11.0522C11.8682 10.813 11.8184 10.5664 11.8125 10.3125C11.8125 9.99023 11.8857 9.6875 12.0322 9.4043C12.1787 9.12109 12.3779 8.87207 12.6299 8.65723C12.8818 8.44238 13.1807 8.27393 13.5264 8.15186C13.8721 8.02979 14.2383 7.96875 14.625 7.96875ZM14.625 8.90625C14.3906 8.90625 14.1709 8.94287 13.9658 9.01611C13.7607 9.08936 13.582 9.18945 13.4297 9.31641C13.2773 9.44336 13.1572 9.59229 13.0693 9.76318C12.9814 9.93408 12.9375 10.1172 12.9375 10.3125C12.9375 10.5078 12.9814 10.6909 13.0693 10.8618C13.1572 11.0327 13.2773 11.1816 13.4297 11.3086C13.582 11.4355 13.7607 11.5356 13.9658 11.6089C14.1709 11.6821 14.3906 11.7188 14.625 11.7188C14.8594 11.7188 15.0791 11.6821 15.2842 11.6089C15.4893 11.5356 15.668 11.4355 15.8203 11.3086C15.9727 11.1816 16.0928 11.0327 16.1807 10.8618C16.2686 10.6909 16.3125 10.5078 16.3125 10.3125C16.3125 10.1172 16.2686 9.93408 16.1807 9.76318C16.0928 9.59229 15.9727 9.44336 15.8203 9.31641C15.668 9.18945 15.4893 9.08936 15.2842 9.01611C15.0791 8.94287 14.8594 8.90625 14.625 8.90625ZM15.75 13.3008V12.4585C15.3984 12.5903 15.0234 12.6562 14.625 12.6562C14.2266 12.6562 13.8516 12.5903 13.5 12.4585V13.3008L14.625 12.832L15.75 13.3008ZM14.625 3.75C14.3145 3.75 14.0244 3.79883 13.7549 3.89648C13.4854 3.99414 13.2451 4.12842 13.0342 4.29932C12.8232 4.47021 12.6621 4.66797 12.5508 4.89258C12.4395 5.11719 12.3809 5.36133 12.375 5.625C12.375 6.07422 12.2549 6.49658 12.0146 6.89209C11.7744 7.2876 11.4346 7.62207 10.9951 7.89551C11.1064 7.93945 11.2119 7.98828 11.3115 8.04199C11.4111 8.0957 11.5137 8.15186 11.6191 8.21045L10.96 8.97217C10.6729 8.80127 10.3623 8.66943 10.0283 8.57666C9.69434 8.48389 9.35156 8.4375 9 8.4375C8.53125 8.4375 8.09473 8.51074 7.69043 8.65723C7.28613 8.80371 6.92871 9.00391 6.61816 9.25781C6.30762 9.51172 6.06445 9.81201 5.88867 10.1587C5.71289 10.5054 5.625 10.8691 5.625 11.25H4.5C4.5 10.8936 4.55859 10.5493 4.67578 10.2173C4.79297 9.88525 4.95996 9.57275 5.17676 9.27979C5.39355 8.98682 5.6543 8.72314 5.95898 8.48877C6.26367 8.25439 6.60938 8.0542 6.99609 7.88818C6.5625 7.61963 6.22559 7.2876 5.98535 6.89209C5.74512 6.49658 5.625 6.07422 5.625 5.625C5.625 5.36621 5.56641 5.12451 5.44922 4.8999C5.33203 4.67529 5.1709 4.4751 4.96582 4.29932C4.76074 4.12354 4.52344 3.98926 4.25391 3.89648C3.98438 3.80371 3.69141 3.75488 3.375 3.75C3.06445 3.75 2.77441 3.79883 2.50488 3.89648C2.23535 3.99414 1.99512 4.12842 1.78418 4.29932C1.57324 4.47021 1.41211 4.66797 1.30078 4.89258C1.18945 5.11719 1.13086 5.36133 1.125 5.625H0C0 5.37109 0.0410156 5.12451 0.123047 4.88525C0.205078 4.646 0.319336 4.41895 0.46582 4.2041C0.612305 3.98926 0.793945 3.79395 1.01074 3.61816C1.22754 3.44238 1.4707 3.29102 1.74023 3.16406C1.54688 2.99316 1.39746 2.79541 1.29199 2.5708C1.18652 2.34619 1.13086 2.11426 1.125 1.875C1.125 1.61621 1.18359 1.37451 1.30078 1.1499C1.41797 0.925293 1.5791 0.725098 1.78418 0.549316C1.98926 0.373535 2.22656 0.239258 2.49609 0.146484C2.76562 0.0537109 3.05859 0.00488281 3.375 0C3.68555 0 3.97559 0.0488281 4.24512 0.146484C4.51465 0.244141 4.75488 0.378418 4.96582 0.549316C5.17676 0.720215 5.33789 0.917969 5.44922 1.14258C5.56055 1.36719 5.61914 1.61133 5.625 1.875C5.625 2.11426 5.57227 2.34619 5.4668 2.5708C5.36133 2.79541 5.20898 2.99316 5.00977 3.16406C5.49023 3.38379 5.88281 3.68652 6.1875 4.07227C6.3457 3.87695 6.52734 3.70117 6.73242 3.54492C6.9375 3.38867 7.16016 3.25684 7.40039 3.14941C7.64062 3.04199 7.89551 2.95898 8.16504 2.90039C8.43457 2.8418 8.71289 2.8125 9 2.8125C9.28125 2.8125 9.55664 2.8418 9.82617 2.90039C10.0957 2.95898 10.3506 3.04199 10.5908 3.14941C10.8311 3.25684 11.0566 3.38867 11.2676 3.54492C11.4785 3.70117 11.6602 3.87695 11.8125 4.07227C12.1172 3.68652 12.5098 3.38379 12.9902 3.16406C12.7969 2.99316 12.6475 2.79541 12.542 2.5708C12.4365 2.34619 12.3809 2.11426 12.375 1.875C12.375 1.61621 12.4336 1.37451 12.5508 1.1499C12.668 0.925293 12.8291 0.725098 13.0342 0.549316C13.2393 0.373535 13.4766 0.239258 13.7461 0.146484C14.0156 0.0537109 14.3086 0.00488281 14.625 0C14.9355 0 15.2256 0.0488281 15.4951 0.146484C15.7646 0.244141 16.0049 0.378418 16.2158 0.549316C16.4268 0.720215 16.5879 0.917969 16.6992 1.14258C16.8105 1.36719 16.8691 1.61133 16.875 1.875C16.875 2.11426 16.8223 2.34619 16.7168 2.5708C16.6113 2.79541 16.459 2.99316 16.2598 3.16406C16.5293 3.29102 16.7695 3.44238 16.9805 3.61816C17.1914 3.79395 17.373 3.98682 17.5254 4.19678C17.6777 4.40674 17.7949 4.63379 17.877 4.87793C17.959 5.12207 18 5.37109 18 5.625H16.875C16.875 5.36621 16.8164 5.12451 16.6992 4.8999C16.582 4.67529 16.4209 4.4751 16.2158 4.29932C16.0107 4.12354 15.7734 3.98926 15.5039 3.89648C15.2344 3.80371 14.9414 3.75488 14.625 3.75ZM13.5 1.875C13.5 2.00684 13.5293 2.12891 13.5879 2.24121C13.6465 2.35352 13.7256 2.45117 13.8252 2.53418C13.9248 2.61719 14.0449 2.68555 14.1855 2.73926C14.3262 2.79297 14.4727 2.81738 14.625 2.8125C14.7832 2.8125 14.9297 2.78809 15.0645 2.73926C15.1992 2.69043 15.3164 2.62451 15.416 2.5415C15.5156 2.4585 15.5977 2.3584 15.6621 2.24121C15.7266 2.12402 15.7559 2.00195 15.75 1.875C15.75 1.74316 15.7207 1.62109 15.6621 1.50879C15.6035 1.39648 15.5244 1.29883 15.4248 1.21582C15.3252 1.13281 15.2051 1.06445 15.0645 1.01074C14.9238 0.957031 14.7773 0.932617 14.625 0.9375C14.4668 0.9375 14.3203 0.961914 14.1855 1.01074C14.0508 1.05957 13.9336 1.12549 13.834 1.2085C13.7344 1.2915 13.6523 1.3916 13.5879 1.50879C13.5234 1.62598 13.4941 1.74805 13.5 1.875ZM2.25 1.875C2.25 2.00684 2.2793 2.12891 2.33789 2.24121C2.39648 2.35352 2.47559 2.45117 2.5752 2.53418C2.6748 2.61719 2.79492 2.68555 2.93555 2.73926C3.07617 2.79297 3.22266 2.81738 3.375 2.8125C3.5332 2.8125 3.67969 2.78809 3.81445 2.73926C3.94922 2.69043 4.06641 2.62451 4.16602 2.5415C4.26562 2.4585 4.34766 2.3584 4.41211 2.24121C4.47656 2.12402 4.50586 2.00195 4.5 1.875C4.5 1.74316 4.4707 1.62109 4.41211 1.50879C4.35352 1.39648 4.27441 1.29883 4.1748 1.21582C4.0752 1.13281 3.95508 1.06445 3.81445 1.01074C3.67383 0.957031 3.52734 0.932617 3.375 0.9375C3.2168 0.9375 3.07031 0.961914 2.93555 1.01074C2.80078 1.05957 2.68359 1.12549 2.58398 1.2085C2.48438 1.2915 2.40234 1.3916 2.33789 1.50879C2.27344 1.62598 2.24414 1.74805 2.25 1.875ZM6.75 5.625C6.75 5.88379 6.80859 6.12549 6.92578 6.3501C7.04297 6.57471 7.2041 6.7749 7.40918 6.95068C7.61426 7.12646 7.85156 7.26074 8.12109 7.35352C8.39062 7.44629 8.68359 7.49512 9 7.5C9.31055 7.5 9.60059 7.45117 9.87012 7.35352C10.1396 7.25586 10.3799 7.12158 10.5908 6.95068C10.8018 6.77979 10.9629 6.58203 11.0742 6.35742C11.1855 6.13281 11.2441 5.88867 11.25 5.625C11.25 5.36621 11.1914 5.12451 11.0742 4.8999C10.957 4.67529 10.7959 4.4751 10.5908 4.29932C10.3857 4.12354 10.1484 3.98926 9.87891 3.89648C9.60938 3.80371 9.31641 3.75488 9 3.75C8.68945 3.75 8.39941 3.79883 8.12988 3.89648C7.86035 3.99414 7.62012 4.12842 7.40918 4.29932C7.19824 4.47021 7.03711 4.66797 6.92578 4.89258C6.81445 5.11719 6.75586 5.36133 6.75 5.625Z" fill="#0250E6"/>
</g>
<defs>
<clipPath id="clip0_1_988">
<rect width="18" height="15" fill="white"/>
</clipPath>
</defs>
</svg>
