<svg width="27" height="24" viewBox="0 0 27 24" fill="none" xmlns="http://www.w3.org/2000/svg">
<path fill-rule="evenodd" clip-rule="evenodd" d="M11.9155 3.65C12.2935 3.39036 12.7533 3.25 13.2258 3.25C13.6983 3.25 14.158 3.39036 14.536 3.65L22.1791 8.9C22.4503 9.08629 22.6705 9.32786 22.8221 9.60557C22.9737 9.88328 23.0526 10.1895 23.0526 10.5V19C23.0526 19.5304 22.8226 20.0391 22.413 20.4142C22.0035 20.7893 21.4481 21 20.8689 21H5.58267C5.00351 21 4.44806 20.7893 4.03853 20.4142C3.629 20.0391 3.39893 19.5304 3.39893 19V10.5C3.39893 10.1895 3.47786 9.88328 3.62947 9.60557C3.78108 9.32786 4.00121 9.08629 4.27242 8.9L11.9155 3.65ZM14.3177 10C14.3177 9.73478 14.2026 9.48043 13.9979 9.29289C13.7931 9.10536 13.5154 9 13.2258 9C12.9362 9 12.6585 9.10536 12.4537 9.29289C12.2489 9.48043 12.1339 9.73478 12.1339 10V16C12.1339 16.2652 12.2489 16.5196 12.4537 16.7071C12.6585 16.8946 12.9362 17 13.2258 17C13.5154 17 13.7931 16.8946 13.9979 16.7071C14.2026 16.5196 14.3177 16.2652 14.3177 16V10ZM9.95016 13C9.95016 12.7348 9.83513 12.4804 9.63036 12.2929C9.42559 12.1054 9.14787 12 8.85829 12C8.56871 12 8.29098 12.1054 8.08622 12.2929C7.88145 12.4804 7.76642 12.7348 7.76642 13V16C7.76642 16.2652 7.88145 16.5196 8.08622 16.7071C8.29098 16.8946 8.56871 17 8.85829 17C9.14787 17 9.42559 16.8946 9.63036 16.7071C9.83513 16.5196 9.95016 16.2652 9.95016 16V13ZM18.6851 15C18.6851 14.7348 18.5701 14.4804 18.3653 14.2929C18.1606 14.1054 17.8829 14 17.5933 14C17.3037 14 17.026 14.1054 16.8212 14.2929C16.6164 14.4804 16.5014 14.7348 16.5014 15V16C16.5014 16.2652 16.6164 16.5196 16.8212 16.7071C17.026 16.8946 17.3037 17 17.5933 17C17.8829 17 18.1606 16.8946 18.3653 16.7071C18.5701 16.5196 18.6851 16.2652 18.6851 16V15Z" fill="#0250E6"/>
</svg>
